<?xml version="1.0" encoding="utf-8"?>
<!-- Generator: Adobe Illustrator 23.0.3, SVG Export Plug-In . SVG Version: 6.00 Build 0)  -->
<svg version="1.1" id="Layer_1" xmlns="http://www.w3.org/2000/svg" xmlns:xlink="http://www.w3.org/1999/xlink" x="0px" y="0px"
	 viewBox="0 0 460 622" style="enable-background:new 0 0 460 622;" xml:space="preserve">
<style type="text/css">
	.st0{fill:url(#SVGID_1_);}
	.st1{fill:url(#SVGID_2_);}
</style>
<g>
	<linearGradient id="SVGID_1_" gradientUnits="userSpaceOnUse" x1="119.5108" y1="328.4728" x2="472.6417" y2="279.3226">
		<stop  offset="0" style="stop-color:#24021A"/>
		<stop  offset="0.4419" style="stop-color:#2C021D"/>
		<stop  offset="1" style="stop-color:#3D0222"/>
	</linearGradient>
	<path class="st0" d="M358.3,407.6l-67.8-58.5l29.8-13.3l-41.7-18.5l25-11.9l-23.8-17.8l34.5-23l-32.2-19.3L241,186.9l30.4-3.7
		C236,149.1,220.3,60.3,214.1,11.4c-3.6,16.1-33.6,146-58.4,176.9l-18.6,11.3l5.9,8.2l17.6,3l-33.3,64l-25.5,15.8l16.6-5.5l0.5,8.8
		l11.8,9.1l20.1-8.2l-58.3,64.6l41.1-25.3l-9.8,15.8l34.3-3c0,0-32.3,32.6-50.4,39.3c-18.1,6.7-70.5,11.3-70.5,11.3h60.7l-34.8,10.1
		c0,0,85.2,0.9,102.8,7.9l-23.5,24.1l-26.9,15.5l33.8-1.8l-1,19.5l15.2,3.7l25.5-50.6l6.4,1.5l-0.5,25.3l19.6-3.4L202.2,496h10.3
		l11.3-21l2.4,8.8l3.9,0.1l2.3,129.1h26.1l-15.1-128.9l2.9,0v-10.4l38.4,20.1l-33.5-71.7l26.4,8.4l-2.9,5.2l7.8,4.3l2.2,4l39.7,2.5
		l14.4,13.6v-19.5l-28.1-27.2l24.2-10.6L358.3,407.6z"/>
	<linearGradient id="SVGID_2_" gradientUnits="userSpaceOnUse" x1="241.952" y1="340.4761" x2="378.2706" y2="104.3653">
		<stop  offset="0" style="stop-color:#371426"/>
		<stop  offset="0.2854" style="stop-color:#371629"/>
		<stop  offset="0.4926" style="stop-color:#371C32"/>
		<stop  offset="0.6751" style="stop-color:#372742"/>
		<stop  offset="0.8423" style="stop-color:#373658"/>
		<stop  offset="1" style="stop-color:#374A75"/>
	</linearGradient>
	<path class="st1" d="M362.5,366l-18.3-12.5l10.9-6.3l26.8-15.3l-35-5.7l-12-1.9h11.3h14.7L340,308.4l-26.1-19.8l15.9-6.3l28.2-11.1
		l7.3-10.4l-47.7-9.8l-3.5-0.7l-27.4-41.6l14.2-0.3l23.8-0.5c0,0-16-6.5-38.6-37.4c-20.7-28.4-47-77.3-71.5-160.6
		c0,0-0.1,0.6-0.4,1.6c6.2,48.9,21.9,137.6,57.3,171.7l-30.4,3.7l41.1,58.5l32.2,19.3l-34.5,23l23.8,17.8l-25,11.9l41.7,18.5
		l-29.8,13.3l67.8,58.5l14.8,3.1l6.7-0.5l42.2-3.4L362.5,366z"/>
</g>
</svg>
