<?xml version="1.0" encoding="utf-8"?>
<!-- Generator: Adobe Illustrator 24.1.2, SVG Export Plug-In . SVG Version: 6.00 Build 0)  -->
<svg version="1.1" id="Layer_1" xmlns="http://www.w3.org/2000/svg" xmlns:xlink="http://www.w3.org/1999/xlink" x="0px" y="0px"
	 viewBox="0 0 1491 811" style="enable-background:new 0 0 1491 811;" xml:space="preserve">
<style type="text/css">
	.st0{fill:url(#SVGID_1_);}
	.st1{fill:url(#SVGID_2_);}
	.st2{fill:none;}
	.st3{fill:url(#SVGID_3_);}
	.st4{fill:url(#SVGID_4_);}
	.st5{fill:url(#SVGID_5_);}
	.st6{fill:url(#SVGID_6_);}
	.st7{fill:url(#SVGID_7_);}
	.st8{fill:url(#SVGID_8_);}
	.st9{fill:url(#SVGID_9_);}
	.st10{fill:url(#SVGID_10_);}
	.st11{fill:url(#SVGID_11_);}
	.st12{fill:url(#SVGID_12_);}
	.st13{fill:url(#SVGID_13_);}
	.st14{fill:url(#SVGID_14_);}
	.st15{fill:url(#SVGID_15_);}
	.st16{fill:url(#SVGID_16_);}
	.st17{fill:url(#SVGID_17_);}
	.st18{fill:url(#SVGID_18_);}
	.st19{fill:url(#SVGID_19_);}
	.st20{fill:url(#SVGID_20_);}
	.st21{fill:url(#SVGID_21_);}
	.st22{fill:url(#SVGID_22_);}
	.st23{fill:#82E9DF;}
	.st24{fill:url(#SVGID_23_);}
	.st25{fill:url(#SVGID_24_);}
	.st26{fill:url(#SVGID_25_);}
	.st27{fill:url(#SVGID_26_);}
	.st28{fill:url(#SVGID_27_);}
	.st29{fill:url(#SVGID_28_);}
	.st30{fill:url(#SVGID_29_);}
	.st31{fill:url(#SVGID_30_);}
	.st32{fill:url(#SVGID_31_);}
	.st33{fill:url(#SVGID_32_);}
	.st34{fill:url(#SVGID_33_);}
	.st35{fill:url(#SVGID_34_);}
	.st36{fill:url(#SVGID_35_);}
	.st37{fill:url(#SVGID_36_);}
	.st38{fill:url(#SVGID_37_);}
	.st39{fill:url(#SVGID_38_);}
	.st40{fill:url(#SVGID_39_);}
	.st41{fill:url(#SVGID_40_);}
	.st42{fill:url(#SVGID_41_);}
	.st43{fill:#43446E;}
	.st44{fill:#0E255E;}
	.st45{fill:url(#SVGID_42_);}
	.st46{fill:url(#SVGID_43_);}
	.st47{fill:url(#SVGID_44_);}
	.st48{fill:#997B73;}
	.st49{fill:url(#SVGID_45_);}
	.st50{fill:#142961;}
	.st51{fill:url(#SVGID_46_);}
	.st52{fill:url(#SVGID_47_);}
	.st53{fill:url(#SVGID_48_);}
	.st54{fill:url(#SVGID_49_);}
	.st55{fill:url(#SVGID_50_);}
	.st56{fill:url(#SVGID_51_);}
	.st57{fill:url(#SVGID_52_);}
	.st58{fill:url(#SVGID_53_);}
	.st59{fill:url(#SVGID_54_);}
	.st60{fill:url(#SVGID_55_);}
	.st61{fill:url(#SVGID_56_);}
	.st62{fill:url(#SVGID_57_);}
</style>
<g>
	<g>
		
			<linearGradient id="SVGID_1_" gradientUnits="userSpaceOnUse" x1="-2930.541" y1="476.05" x2="-2845.3748" y2="476.05" gradientTransform="matrix(-0.9994 3.438121e-02 -3.438121e-02 -0.9994 -1628.4175 894.3887)">
			<stop  offset="0" style="stop-color:#071C3A"/>
			<stop  offset="0.6108" style="stop-color:#03182E"/>
			<stop  offset="1" style="stop-color:#001524"/>
		</linearGradient>
		<path class="st0" d="M1206.2,534.8l34.3-18.3l-0.3-20.4c-5,3.2-14.2,8.3-21.9,8c0,0,13.1-5.9,21.8-15.1l-0.1-4.3
			c-5.4,2.8-13.5,6.7-17.1,6.1c0,0,9.7-6.8,17-13.6l-4.3-377.2l5.9-13.8l20.3,380.2c10.6,1.6,23.7,6.7,24.8,22c0,0-9.3-8.8-15.1-8.9
			l18.4,21l-17.4-9.6c0,0,8.3,16.9,12.2,19.7c-2.6-1.6-13.2-8.3-14.7-12.7c0,0,1.2,11.2,5.1,13c0,0-5.9,0.4-10.9-1.2l0.4,7
			l16.2,10.2l-16-6.2l0.4,7.3l23.3,15.3l-23.1-9.9l1,17.9l-25.7,0.9l-0.4-32L1206.2,534.8z"/>
		
			<linearGradient id="SVGID_2_" gradientUnits="userSpaceOnUse" x1="-2925.5195" y1="283.0996" x2="-2924.9568" y2="283.0996" gradientTransform="matrix(-0.9994 3.438121e-02 -3.438121e-02 -0.9994 -1628.4175 894.3887)">
			<stop  offset="0" style="stop-color:#071C3A"/>
			<stop  offset="0.6108" style="stop-color:#03182E"/>
			<stop  offset="1" style="stop-color:#001524"/>
		</linearGradient>
		<path class="st1" d="M1285,510.7c0.4,0.3,0.5,0.4,0.5,0.4C1285.5,511,1285.3,510.8,1285,510.7z"/>
	</g>
	<polygon class="st2" points="1196.9,397.1 1187,407.2 1182.9,397.8 1189.7,392.3 1190.7,391.5 	"/>
	<polygon class="st2" points="1196.9,397.1 1187.2,407 1187.1,406.3 1187.2,407 1187,407.2 1182.9,397.8 1189.7,392.3 1190.7,391.5 
			"/>
	<g>
		<polygon class="st2" points="1179.5,486.9 1175.4,496.3 1174,488.5 		"/>
		<polygon class="st2" points="1175.4,496.3 1175.4,497.1 1174.9,497.4 		"/>
		
			<linearGradient id="SVGID_3_" gradientUnits="userSpaceOnUse" x1="-2857.1814" y1="320.4059" x2="-2732.6306" y2="320.4059" gradientTransform="matrix(-0.9994 3.438121e-02 -3.438121e-02 -0.9994 -1628.4175 894.3887)">
			<stop  offset="0" style="stop-color:#071C3A"/>
			<stop  offset="0.1413" style="stop-color:#08203C"/>
			<stop  offset="0.2946" style="stop-color:#0B2D41"/>
			<stop  offset="0.4535" style="stop-color:#104349"/>
			<stop  offset="0.6164" style="stop-color:#166255"/>
			<stop  offset="0.7823" style="stop-color:#1F8965"/>
			<stop  offset="0.9483" style="stop-color:#29B878"/>
			<stop  offset="1" style="stop-color:#2DC87E"/>
		</linearGradient>
		<path class="st3" d="M1150.5,471l-17.4,10.8l3.4-6.5l-22.2,12.8l26.7-20.2l-3.6,0.1l19.6-8.8l-4-3.2l18.4-8.4l-23,7.7l18.8-13
			l0.7-3.8c10.6-3.8,25.6-7.8,35.6-4.4c16.9,5.9,10.3,19.3,10.3,19.3c-1.2-10-14.2-10.6-14.2-10.6l6.5,6.2l2.5,9.1l-1.3,10.7
			l-0.1-0.1l-3.5,4.5l3.2,7.3l-4.4,4.4l-3-1.9l-5.1,3.5l1.5-7.7l-5.9,4.8l3,12.6l-6.2-4.2l-11.5,4.8l-0.2-0.8l4.2-9.4l-5.6,1.6
			l1.3,7.8l-0.4,1l0.6-0.3l1.2,7.2l-6.6-3.4l-5.5,10l1.4-18.4l-8.1,4.3l-5.9-2.6l-2.2,5.5l-3.4-4.1l-0.6,5.2l-4.6,0.5l-2.8,4.3
			l-5.8-3l-6.9,12.1l1.3-15.1l-13.2,20.1l-0.3-8.2l-20.3,12.8L1150.5,471z"/>
		
			<linearGradient id="SVGID_4_" gradientUnits="userSpaceOnUse" x1="-2889.4141" y1="341.2432" x2="-2856.2742" y2="283.8434" gradientTransform="matrix(-0.9994 3.438121e-02 -3.438121e-02 -0.9994 -1628.4175 894.3887)">
			<stop  offset="0" style="stop-color:#071C3A"/>
			<stop  offset="0.1288" style="stop-color:#08213C"/>
			<stop  offset="0.2843" style="stop-color:#0B3042"/>
			<stop  offset="0.4535" style="stop-color:#11484B"/>
			<stop  offset="0.6324" style="stop-color:#186A59"/>
			<stop  offset="0.817" style="stop-color:#22966A"/>
			<stop  offset="1" style="stop-color:#2DC87E"/>
		</linearGradient>
		<path class="st4" d="M1221,458.7c0,0,8.9-4.3,19.7-4.7c15.9-0.2,17.4,10,17.4,10c-3.2-4.2-11.9-2-11.9-2l10.2,7.5l3.8,13.9l-12-4
			l4,15.7l-18.2-14l2,10.2l-2.7-0.5l-2.3,14.6l-7.1-9l-7.5,5.5l2.6-12.8l-12.7,17.9l3.9-15.2l-10.5-0.4l4.6-5.1l-1.9-1.2l4.4-4.4
			l0.8,1.9l18.9-21.1c0,0,0,0-0.1,0l4-2L1221,458.7z"/>
		
			<linearGradient id="SVGID_5_" gradientUnits="userSpaceOnUse" x1="-3036.8284" y1="330.875" x2="-2810.5413" y2="330.875" gradientTransform="matrix(-0.9994 3.438121e-02 -3.438121e-02 -0.9994 -1628.4175 894.3887)">
			<stop  offset="0" style="stop-color:#071C3A"/>
			<stop  offset="0.6108" style="stop-color:#03182E"/>
			<stop  offset="1" style="stop-color:#001524"/>
		</linearGradient>
		<path class="st5" d="M1203.7,434.1c-9.9-3.5-24.9,0.5-35.6,4.4v-0.2l17.2-7.8l-6.7,0.3c0,0,34.2-23.2,60.1-24
			c15.4-0.5,23.5-3.6,49,13.9c10.2,4.1,30,12.4,39.5,18.8l-18-2.4l-9.2-1.2l11.2,2.8l52.3,13.2l-14,0.4l8.3,7.4l-14.7-1.5l-0.5,7.5
			l-0.3,4.4l8.7,3.1l18.2,6.6l-11.4-0.4c4.9,4.5,10,9.2,15.4,14.3l-5.7-1.4l29.8,24.9l-16.1-4.4l0.8,5l-33.2-30.6l0.9,8.3
			l-10.2-16.8l-5.8,14.3l-3.4-20.9l-16.2,20l1-19.4l-9.8,9.9c0,0-7.2-16.6-18.5-11.6l-0.5,8.4l-10.1-6.7l-11.2,15.1l-1-17.7
			l-7.9-0.5l0.1,0.2l-10.2-7.5c0,0,8.8-2.2,11.9,2c0,0-1.6-10.1-17.4-10c-10.8,0.4-19.7,4.7-19.7,4.7l9.7,0.7l-4,2
			c-1.1,0.2-14.1,2.8-16.2,13.6l-3.2-5.9l1.3-10.7l-2.5-9.1l-6.5-6.2c0,0,13,0.5,14.2,10.6C1214,453.5,1220.5,440,1203.7,434.1z"/>
	</g>
	<g>
		<polygon class="st2" points="1212.6,195.8 1210.9,199.7 1210.3,196.4 		"/>
		<polygon class="st2" points="1210.9,199.7 1210.9,199.9 1210.7,200 		"/>
		
			<linearGradient id="SVGID_6_" gradientUnits="userSpaceOnUse" x1="-2878.5813" y1="604.3787" x2="-2827.2507" y2="604.3787" gradientTransform="matrix(-0.9994 3.438121e-02 -3.438121e-02 -0.9994 -1628.4175 894.3887)">
			<stop  offset="0" style="stop-color:#071C3A"/>
			<stop  offset="0.1413" style="stop-color:#08203C"/>
			<stop  offset="0.2946" style="stop-color:#0B2D41"/>
			<stop  offset="0.4535" style="stop-color:#104349"/>
			<stop  offset="0.6164" style="stop-color:#166255"/>
			<stop  offset="0.7823" style="stop-color:#1F8965"/>
			<stop  offset="0.9483" style="stop-color:#29B878"/>
			<stop  offset="1" style="stop-color:#2DC87E"/>
		</linearGradient>
		<path class="st6" d="M1200.6,189.2l-7.2,4.4l1.4-2.7l-9.1,5.3l11-8.3l-1.5,0.1l8.1-3.6l-1.7-1.3l7.5-3.5l-9.5,3.2l7.8-5.3l0.3-1.6
			c4.3-1.6,10.6-3.2,14.6-1.8c6.9,2.4,4.3,8,4.3,8c-0.4-4.1-5.9-4.3-5.9-4.3l2.7,2.6l1.1,3.8l-0.5,4.4v-0.1l-1.4,1.9l1.3,3l-1.9,1.9
			l-1.2-0.8l-2.1,1.5l0.6-3.2l-2.4,2l1.2,5.1l-2.6-1.8l-4.7,2l-0.1-0.4l1.8-3.9l-2.3,0.6l0.5,3.2l-0.2,0.4l0.3-0.1l0.5,3l-2.7-1.4
			l-2.2,4.2l0.5-7.5l-3.4,1.8l-2.4-1.1l-0.9,2.3l-1.4-1.7l-0.3,2.1l-1.9,0.3l-1.2,1.8l-2.4-1.2l-2.8,5l0.5-6.2l-5.4,8.3l-0.1-3.4
			l-8.4,5.2L1200.6,189.2z"/>
		
			<linearGradient id="SVGID_7_" gradientUnits="userSpaceOnUse" x1="-2891.8025" y1="613.1508" x2="-2878.1562" y2="589.5151" gradientTransform="matrix(-0.9994 3.438121e-02 -3.438121e-02 -0.9994 -1628.4175 894.3887)">
			<stop  offset="0" style="stop-color:#071C3A"/>
			<stop  offset="0.1288" style="stop-color:#08213C"/>
			<stop  offset="0.2843" style="stop-color:#0B3042"/>
			<stop  offset="0.4535" style="stop-color:#11484B"/>
			<stop  offset="0.6324" style="stop-color:#186A59"/>
			<stop  offset="0.817" style="stop-color:#22966A"/>
			<stop  offset="1" style="stop-color:#2DC87E"/>
		</linearGradient>
		<path class="st7" d="M1229.7,184.1c0,0,3.6-1.8,8.2-2c6.6-0.1,7.2,4.1,7.2,4.1c-1.3-1.7-4.9-0.8-4.9-0.8l4.2,3.1l1.6,5.8l-5-1.7
			l1.6,6.5l-7.5-5.8l0.8,4.2l-1.1-0.2l-1,6l-2.9-3.7l-3.1,2.2l1.1-5.2l-5.2,7.4l1.6-6.3l-4.3-0.2l1.9-2.1l-0.8-0.4l1.9-1.9l0.4,0.7
			l7.8-8.7l0,0l1.6-0.9L1229.7,184.1z"/>
		
			<linearGradient id="SVGID_8_" gradientUnits="userSpaceOnUse" x1="-2952.5818" y1="608.8816" x2="-2859.2734" y2="608.8816" gradientTransform="matrix(-0.9994 3.438121e-02 -3.438121e-02 -0.9994 -1628.4175 894.3887)">
			<stop  offset="0" style="stop-color:#071C3A"/>
			<stop  offset="0.6108" style="stop-color:#03182E"/>
			<stop  offset="1" style="stop-color:#001524"/>
		</linearGradient>
		<path class="st8" d="M1222.5,174c-4.1-1.4-10.3,0.3-14.6,1.8v-0.1l7.1-3.2l-2.8,0.1c0,0,14.1-9.6,24.8-9.9
			c6.3-0.2,9.7-1.5,20.2,5.8c4.2,1.7,12.3,5.1,16.3,7.7l-7.5-1l-3.8-0.5l4.6,1.2l21.6,5.5l-5.8,0.2l3.5,3l-6-0.6l-0.2,3.1l-0.1,1.9
			l3.5,1.3l7.5,2.8l-4.7-0.2c2,1.9,4.2,3.8,6.4,5.9l-2.3-0.6l12.2,10.3l-6.6-1.9l0.4,2l-13.7-12.6l0.4,3.4l-4.2-6.9l-2.4,5.9
			l-1.3-8.6l-6.7,8.3l0.4-8l-4,4.1c0,0-2.9-6.8-7.6-4.8l-0.2,3.5l-4.2-2.8l-4.6,6.2l-0.4-7.3l-3.2-0.2v0.1l-4.2-3.1
			c0,0,3.6-0.9,4.9,0.8c0,0-0.6-4.2-7.2-4.1c-4.4,0.2-8.2,2-8.2,2l4,0.3l-1.6,0.9c-0.4,0.1-5.8,1.2-6.7,5.6l-1.3-2.5l0.5-4.4
			l-1.1-3.8l-2.7-2.6c0,0,5.4,0.3,5.9,4.3C1226.7,182,1229.5,176.4,1222.5,174z"/>
	</g>
	<g>
		
			<linearGradient id="SVGID_9_" gradientUnits="userSpaceOnUse" x1="-2903.1946" y1="421.5873" x2="-2864.0696" y2="353.821" gradientTransform="matrix(-0.9994 3.438121e-02 -3.438121e-02 -0.9994 -1628.4175 894.3887)">
			<stop  offset="0" style="stop-color:#071C3A"/>
			<stop  offset="0.2644" style="stop-color:#081E3B"/>
			<stop  offset="0.4188" style="stop-color:#09273E"/>
			<stop  offset="0.5451" style="stop-color:#0C3544"/>
			<stop  offset="0.656" style="stop-color:#11494C"/>
			<stop  offset="0.757" style="stop-color:#176356"/>
			<stop  offset="0.8508" style="stop-color:#1E8363"/>
			<stop  offset="0.9371" style="stop-color:#26A871"/>
			<stop  offset="1" style="stop-color:#2DC87E"/>
		</linearGradient>
		<path class="st9" d="M1209,387.8l16.9-11.4l-5.3-2.4c0,0,27.9-9.2,36.3-1.2c8.5,8,13.6,13.7,13.6,13.7l-7.9-0.8l20.9,9.8
			l-11.3-1.2l5.5,9.2l-5.8,1.4c0,0,1.6,2.6,3.5,6.1c-0.1,0-0.1,0.1-0.2,0.1l-3.7,9.1l-2.7-6.1l-6.3,4.4l14.4,8l-15.4-5.3l-1.2,11.1
			l-5-10.1l-6.2,0.4l-3.4,14.2l-2.3-14.2l-21.3,10.8l9-13.9l-10.8,6.8l13-13.3l-7.2,1.7l7.8-11.4l-4.2-4.7l-4.2,1.3l-2.5,3.9
			l-2.8-4.1l-6.2,11.9l-2.3-9.1l-26.4,20.6l17.4-22.5l17.5-15.9L1209,387.8z"/>
		
			<linearGradient id="SVGID_10_" gradientUnits="userSpaceOnUse" x1="-3009.4353" y1="404.0175" x2="-2927.3728" y2="404.0175" gradientTransform="matrix(-0.9994 3.438121e-02 -3.438121e-02 -0.9994 -1628.4175 894.3887)">
			<stop  offset="0" style="stop-color:#071C3A"/>
			<stop  offset="0.5039" style="stop-color:#061B38"/>
			<stop  offset="0.7979" style="stop-color:#04192F"/>
			<stop  offset="1" style="stop-color:#001524"/>
		</linearGradient>
		<path class="st10" d="M1292,390.1l2.2,3.5l-0.1-0.5l7.6,6.7l1.1-3.6l6.9,4.4l-0.6,9.7l10.2-9.1l0.4,19.3l14.6-15.9
			c-3.1,5.9,3.9,21.6,3.9,21.6l6.1-11.6l22.5,14.6c-6-17.8-30.8-36.3-30.8-36.3l12,5.9l-32-25.5c5-2.4,13.3,0.5,13.3,0.5
			c-2.1-4.5-13.9-8.2-13.9-8.2l1.8-8.1c-5.3,8-21.2,2.2-21.7-2c-0.4-4.2,8.6-4.2,8.6-4.2c-4.6-2.7-15.8-3.8-17.1-3.9
			c-1.7,0.6-3.4,1.6-4.8,3.2l0.4,11.9l5.1-3.9l0.4,15.2l3.9-8L1292,390.1z M1307.8,393.5l2.5-0.1l-0.3,3.6L1307.8,393.5z
			 M1305.8,383.7l5,0.9l-0.1,2L1305.8,383.7z"/>
		
			<linearGradient id="SVGID_11_" gradientUnits="userSpaceOnUse" x1="-2956.3982" y1="485.4362" x2="-2764.1306" y2="374.4306" gradientTransform="matrix(-0.9994 3.438121e-02 -3.438121e-02 -0.9994 -1628.4175 894.3887)">
			<stop  offset="0" style="stop-color:#071C3A"/>
			<stop  offset="0.4033" style="stop-color:#071E3B"/>
			<stop  offset="0.5486" style="stop-color:#09253D"/>
			<stop  offset="0.6522" style="stop-color:#0C3042"/>
			<stop  offset="0.7359" style="stop-color:#0F4149"/>
			<stop  offset="0.8076" style="stop-color:#145751"/>
			<stop  offset="0.8711" style="stop-color:#1A735C"/>
			<stop  offset="0.9286" style="stop-color:#219369"/>
			<stop  offset="0.9796" style="stop-color:#29B777"/>
			<stop  offset="1" style="stop-color:#2DC87E"/>
		</linearGradient>
		<path class="st11" d="M1138.8,424.3l-2.3,8.6l16-15.5l9.4,9.8l4.9-16.9l14,10.4l-0.7-19.9l8.4,5.9l0,0l0,0l3.9,2.7l-1.6-3.7
			l0.3-0.2l-0.4-1.1l-0.3,0.3l-4.1-9.4l6.8-5.5l-0.4-13.5l5.1,9.9l-0.7-21.5l12.8-1.4l-10.7-2.8l1.4-10.3c0,0-3.3-2-8.2-1.7
			c-5.6,6.7-17.5,10.5-17.5,10.5c4.3,1.2,11.2-2.6,11.2-2.6l-21.1,15.8l10.1-4.3l0.3,2.8l-9.7,4l-0.4,6.2l-9.4,1.7l-2,4.5
			l-17.7,15.7l18.4-10.1l-28.1,40.6L1138.8,424.3z M1190.3,404.5l0.5,1.2L1190.3,404.5z"/>
		
			<linearGradient id="SVGID_12_" gradientUnits="userSpaceOnUse" x1="-2852.4316" y1="373.8284" x2="-2983.1699" y2="504.5668" gradientTransform="matrix(-0.9994 3.438121e-02 -3.438121e-02 -0.9994 -1628.4175 894.3887)">
			<stop  offset="0" style="stop-color:#071C3A"/>
			<stop  offset="0.6108" style="stop-color:#03182E"/>
			<stop  offset="1" style="stop-color:#001524"/>
		</linearGradient>
		<path class="st12" d="M1200.3,394.5l-6.2-5.6l-1,0.8l-0.4-13.5l5.1,9.9l-0.7-21.5l12.8-1.4l-10.7-2.8l1.4-10.3c0,0-3.3-2-8.2-1.7
			c0.8-1,1.5-2,2-3l10.6-5.8l-7.2,1.4l18.5-11.9l33.4-2l8.6,5.1l8.7-0.3c0,0,5.7,6.1,10.4,4.2l0.2,3.9c0,0,12.7-0.2,17.9,3.6
			c0,0-7.5,0.5-8.9,3.9c0,0,0.1,0,0.2,0c-1.7,0.6-3.4,1.6-4.8,3.2l0.4,11.9l5.1-3.9l0.4,15.2l3.9-8l0.3,24.2l2.2,3.5l2,11.6l6.4,11
			l-5.8-3l0.5,9.4l-5.7-8.1l-1.2,11.1c0,0-10.4-17.8-15-15.1c-1.9-3.5-3.5-6.1-3.5-6.1l5.8-1.4l-5.5-9.2l11.3,1.2l-20.9-9.8l7.9,0.8
			c0,0-5.1-5.8-13.6-13.7c-8.5-8-36.3,1.2-36.3,1.2l5.3,2.4l-16.9,11.4l11.3-3.4l-17.5,15.9l0.1-0.2l-11.9,5.3l-0.4-1.1
			L1200.3,394.5z"/>
	</g>
	<g>
		
			<linearGradient id="SVGID_13_" gradientUnits="userSpaceOnUse" x1="-2894.6289" y1="516.1757" x2="-2894.6289" y2="440.6457" gradientTransform="matrix(-0.9994 3.438121e-02 -3.438121e-02 -0.9994 -1628.4175 894.3887)">
			<stop  offset="0" style="stop-color:#071C3A"/>
			<stop  offset="0.2644" style="stop-color:#081E3B"/>
			<stop  offset="0.4188" style="stop-color:#09273E"/>
			<stop  offset="0.5451" style="stop-color:#0C3544"/>
			<stop  offset="0.656" style="stop-color:#11494C"/>
			<stop  offset="0.757" style="stop-color:#176356"/>
			<stop  offset="0.8508" style="stop-color:#1E8363"/>
			<stop  offset="0.9371" style="stop-color:#26A871"/>
			<stop  offset="1" style="stop-color:#2DC87E"/>
		</linearGradient>
		<path class="st13" d="M1266.8,279.5c10.9,3,15.4,16.3,15.4,16.3l-9.5-2.3c10,7.5,11.4,15.6,11.4,18.9l-0.4,0.3c0,0-4-4.5-8.5-2.9
			c0,0,7.4,9.8,8.4,17c0,0-11.2-10.3-14.3-7.5l15.8,20l-15.5-7.7c0,0,6.2,16.9,10.7,20c0,0-11.7-7.6-12.8-9.4l1.2,11.8
			c0,0-10-10.7-10.3-13.8c0,0-11.3,0.4-13.6,7.3c0,0-0.3-7.6,2-10.3c0,0-23.4,9.4-32.5,6.9c0,0,20.8-9.6,26.4-20.6
			c0,0-20.2,8.3-23.9,6.8c0,0,15.1-9.3,16.1-15.6c0,0-5.1,2.9-9.5,0.9c0,0,9.6-5.6,7.2-10.2c0,0-10.4-2.9-13.6,4.9
			c-3.2,7.8-1.3,9.7-1.3,9.7s-4.3-2.8-4.2-7.1c0,0-0.1,0.1-0.2,0.2C1220.8,279.7,1256.2,276.5,1266.8,279.5z"/>
		
			<linearGradient id="SVGID_14_" gradientUnits="userSpaceOnUse" x1="-2876.6086" y1="451.4925" x2="-2935.5725" y2="553.6218" gradientTransform="matrix(-0.9994 3.438121e-02 -3.438121e-02 -0.9994 -1628.4175 894.3887)">
			<stop  offset="0" style="stop-color:#071C3A"/>
			<stop  offset="0.5039" style="stop-color:#061B38"/>
			<stop  offset="0.7979" style="stop-color:#04192F"/>
			<stop  offset="1" style="stop-color:#001524"/>
		</linearGradient>
		<path class="st14" d="M1205.4,311c2.9-3.1,1.2-25.4,1.2-25.4l4.1,7.1c3.6-11.4-4.2-22.4-4.2-22.4l5.7,2.6
			c-1.6-8.1-5.3-12.8-8.9-15.4c-0.2-0.5-2.1-7.1-8.2-6.7c0,0,3.2-4.2,14.3-2c0,0,4.3-6.3-2.4-7.3c0,0,9.1-14,26.4-9.7
			c17.2,4.3,16.5,1.1,16.5,1.1s9-7.5,25.7,1.5l-5.2,4.6c0,0,11.3-0.2,17.9,2.2c0,0-9.9,2.6-10.3,5c0,0,15.4-0.7,17.7,2.8
			c0,0-7,1.2-6.7,3.3c0,0,14.6,7.4,19.2,13.8c0,0-16.5-7.3-19.7-5.9c0,0,10.3,6.5,11.8,10.6c0,0-15-8.7-17.9-6.8c0,0,0.6,6.8,10,6.1
			c0,0-3.4,6.1,1.1,6.8c4.4,0.6,11-0.8,15.3,4.7c0,0-6.7-1.2-9,3.3c0,0,17.3,7,20.8,14.4c0,0-15.4-10.1-21.9-6.9
			c0,0-1.7,8.7,15.8,21.4l-7.5-1.3c0,0,13,21,10.1,31.2c0,0-10.7-18.7-14-17.4c-3.4,1.3-4,7.4-4,7.4s-2.2-12.8,0.3-16.7
			c0,0-8.3-0.4-9.9,6.6c0,0-3.2-9.9,1.2-14.3l-6.5,3.4c-0.1-3.4-1.4-11.4-11.4-18.9l9.5,2.3c0,0-4.4-13.3-15.4-16.3
			c-10.6-2.9-46,0.3-55.6,33.6c-1.2,1.3-7.4,8.6-1.5,15.1c0,0-3.8-2.3-4.3,2.6l-5-21L1205.4,311z"/>
		
			<linearGradient id="SVGID_15_" gradientUnits="userSpaceOnUse" x1="-2860.2271" y1="492.8944" x2="-2810.4304" y2="492.8944" gradientTransform="matrix(-0.9994 3.438121e-02 -3.438121e-02 -0.9994 -1628.4175 894.3887)">
			<stop  offset="0" style="stop-color:#071C3A"/>
			<stop  offset="0.1448" style="stop-color:#0B2E41"/>
			<stop  offset="0.4362" style="stop-color:#155E54"/>
			<stop  offset="0.8439" style="stop-color:#26A972"/>
			<stop  offset="1" style="stop-color:#2DC87E"/>
		</linearGradient>
		<path class="st15" d="M1175.6,321.7l-6.1,0.5l14.3-12.9l-6.2,0.2l10.9-10.7c0,0-8.4-0.4-12.5,4.3c0,0,4.1-16.9,17.1-23.2
			c0,0-9.4-2.2-15,1.2c0,0,16.8-10.8,19.4-18.6c0,0-8.5-2-11-0.3c0,0,6.6-5.5,16.7-4.8c0,0,0,0,0-0.1c3.5,2.7,7.3,7.4,8.9,15.4
			l-5.7-2.6c0,0,7.8,11,4.2,22.4l-4.1-7.1c0,0,1.8,22.3-1.2,25.4l-4.9-1.2l5,21c0,0.1,0,0.2,0,0.4c0,0-8.2-14.2-15.3-8.8
			c0,0,7.4,7.7,7.5,13.6c0,0-3.3-4.7-6.4-2c0,0-2.5,5.9,1.8,8.6c0,0-6.7-2-8.9-9.4c0,0-14,3.2-19.3,18.5
			C1165.1,351.4,1169.1,327.6,1175.6,321.7z"/>
	</g>
	<g>
		
			<linearGradient id="SVGID_16_" gradientUnits="userSpaceOnUse" x1="-2890.9934" y1="647.251" x2="-2890.9934" y2="603.993" gradientTransform="matrix(-0.9994 3.438121e-02 -3.438121e-02 -0.9994 -1628.4175 894.3887)">
			<stop  offset="0" style="stop-color:#071C3A"/>
			<stop  offset="0.2644" style="stop-color:#081E3B"/>
			<stop  offset="0.4188" style="stop-color:#09273E"/>
			<stop  offset="0.5451" style="stop-color:#0C3544"/>
			<stop  offset="0.656" style="stop-color:#11494C"/>
			<stop  offset="0.757" style="stop-color:#176356"/>
			<stop  offset="0.8508" style="stop-color:#1E8363"/>
			<stop  offset="0.9371" style="stop-color:#26A871"/>
			<stop  offset="1" style="stop-color:#2DC87E"/>
		</linearGradient>
		<path class="st16" d="M1250.3,148.4c6.3,1.8,8.9,9.4,8.9,9.4l-5.5-1.3c5.8,4.3,6.5,9,6.6,10.8l-0.3,0.2c0,0-2.3-2.6-4.9-1.7
			c0,0,4.3,5.6,4.8,9.8c0,0-6.4-5.9-8.3-4.3l9.1,11.4l-8.9-4.4c0,0,3.5,9.7,6.1,11.4c0,0-6.7-4.3-7.4-5.4l0.7,6.7
			c0,0-5.8-6.1-5.9-7.9c0,0-6.5,0.2-7.8,4.2c0,0-0.2-4.3,1.2-5.9c0,0-13.4,5.4-18.6,4c0,0,11.9-5.5,15.2-11.8c0,0-11.6,4.8-13.7,3.9
			c0,0,8.6-5.3,9.2-9c0,0-2.8,1.7-5.4,0.5c0,0,5.5-3.2,4.1-5.9c0,0-5.9-1.7-7.8,2.8s-0.8,5.6-0.8,5.6s-2.5-1.7-2.4-4.1
			c0,0,0,0-0.1,0.1C1223.9,148.6,1244.2,146.7,1250.3,148.4z"/>
		
			<linearGradient id="SVGID_17_" gradientUnits="userSpaceOnUse" x1="-2880.804" y1="610.1502" x2="-2914.6321" y2="668.7419" gradientTransform="matrix(-0.9994 3.438121e-02 -3.438121e-02 -0.9994 -1628.4175 894.3887)">
			<stop  offset="0" style="stop-color:#071C3A"/>
			<stop  offset="0.5039" style="stop-color:#061B38"/>
			<stop  offset="0.7979" style="stop-color:#04192F"/>
			<stop  offset="1" style="stop-color:#001524"/>
		</linearGradient>
		<path class="st17" d="M1215,166.5c1.7-1.8,0.6-14.6,0.6-14.6l2.3,4.1c2-6.6-2.4-12.9-2.4-12.9l3.3,1.5c-0.9-4.6-3-7.3-5.1-8.9
			c-0.1-0.4-1.2-4.1-4.7-3.9c0,0,1.8-2.4,8.2-1.2c0,0,2.5-3.6-1.3-4.2c0,0,5.2-8.1,15.1-5.5c9.9,2.5,9.5,0.6,9.5,0.6
			s5.1-4.3,14.8,0.9l-3,2.7c0,0,6.5-0.1,10.3,1.2c0,0-5.7,1.4-5.9,2.8c0,0,8.9-0.4,10.2,1.6c0,0-4,0.7-3.8,1.9c0,0,8.3,4.2,11,7.9
			c0,0-9.5-4.2-11.3-3.4c0,0,5.9,3.7,6.7,6.1c0,0-8.6-5-10.3-3.9c0,0,0.4,3.9,5.8,3.5c0,0-2,3.5,0.6,3.9c2.6,0.4,6.3-0.4,8.7,2.7
			c0,0-3.8-0.7-5.1,1.9c0,0,9.9,4,11.9,8.3c0,0-8.9-5.8-12.6-3.9c0,0-1,5,9.1,12.2l-4.3-0.8c0,0,7.5,12.1,5.8,17.9
			c0,0-6.1-10.7-8.1-9.9c-2,0.8-2.3,4.3-2.3,4.3s-1.3-7.4,0.1-9.6c0,0-4.7-0.2-5.6,3.7c0,0-1.8-5.7,0.6-8.2l-3.7,2
			c-0.1-2-0.8-6.6-6.6-10.8l5.5,1.3c0,0-2.6-7.6-8.9-9.4c-6-1.7-26.4,0.2-31.9,19.3c-0.7,0.8-4.2,4.9-0.9,8.6c0,0-2.2-1.3-2.4,1.4
			l-2.8-12.1L1215,166.5z"/>
		
			<linearGradient id="SVGID_18_" gradientUnits="userSpaceOnUse" x1="-2871.4011" y1="633.9428" x2="-2842.8708" y2="633.9428" gradientTransform="matrix(-0.9994 3.438121e-02 -3.438121e-02 -0.9994 -1628.4175 894.3887)">
			<stop  offset="0" style="stop-color:#071C3A"/>
			<stop  offset="0.1448" style="stop-color:#0B2E41"/>
			<stop  offset="0.4362" style="stop-color:#155E54"/>
			<stop  offset="0.8439" style="stop-color:#26A972"/>
			<stop  offset="1" style="stop-color:#2DC87E"/>
		</linearGradient>
		<path class="st18" d="M1198,172.6l-3.5,0.3l8.3-7.4l-3.5,0.1l6.3-6.2c0,0-4.9-0.3-7.2,2.5c0,0,2.3-9.7,9.9-13.3
			c0,0-5.4-1.2-8.6,0.7c0,0,9.7-6.2,11.1-10.6c0,0-4.9-1.2-6.3-0.1c0,0,3.8-3.2,9.6-2.8l0,0c2,1.5,4.2,4.2,5.1,8.9l-3.3-1.5
			c0,0,4.4,6.3,2.4,12.9l-2.3-4.1c0,0,1,12.8-0.6,14.6l-2.8-0.7l2.8,12.1c0,0.1,0,0.1,0,0.2c0,0-4.7-8.2-8.7-5.1
			c0,0,4.2,4.4,4.3,7.8c0,0-1.9-2.7-3.6-1.2c0,0-1.4,3.4,1.1,4.9c0,0-3.8-1.1-5.1-5.4c0,0-8.1,1.9-11,10.6
			C1191.9,189.6,1194.3,176,1198,172.6z"/>
	</g>
	<g>
		
			<linearGradient id="SVGID_19_" gradientUnits="userSpaceOnUse" x1="-2899.1436" y1="577.2984" x2="-2874.9302" y2="535.3599" gradientTransform="matrix(-0.9994 3.438121e-02 -3.438121e-02 -0.9994 -1628.4175 894.3887)">
			<stop  offset="0" style="stop-color:#071C3A"/>
			<stop  offset="0.2644" style="stop-color:#081E3B"/>
			<stop  offset="0.4188" style="stop-color:#09273E"/>
			<stop  offset="0.5451" style="stop-color:#0C3544"/>
			<stop  offset="0.656" style="stop-color:#11494C"/>
			<stop  offset="0.757" style="stop-color:#176356"/>
			<stop  offset="0.8508" style="stop-color:#1E8363"/>
			<stop  offset="0.9371" style="stop-color:#26A871"/>
			<stop  offset="1" style="stop-color:#2DC87E"/>
		</linearGradient>
		<path class="st19" d="M1218.5,226.8l10.5-7.1l-3.3-1.5c0,0,17.2-5.7,22.5-0.8c5.2,4.9,8.3,8.4,8.3,8.4l-4.9-0.5l12.9,6l-7-0.7
			l3.5,5.7l-3.5,0.9c0,0,1,1.6,2.1,3.8c0,0-0.1,0-0.1,0.1l-2.3,5.7l-1.6-3.8l-3.9,2.8l8.9,4.9l-9.6-3.3l-0.8,6.8l-3.1-6.2l-3.8,0.3
			l-2,8.8l-1.4-8.8l-13.2,6.7l5.6-8.6l-6.7,4.2l8.1-8.3l-4.4,1.1l4.9-7l-2.6-2.9l-2.6,0.8l-1.5,2.4l-1.7-2.6l-3.8,7.4l-1.4-5.7
			l-16.3,12.8l10.7-13.9l10.8-9.9L1218.5,226.8z"/>
		
			<linearGradient id="SVGID_20_" gradientUnits="userSpaceOnUse" x1="-2964.9248" y1="566.345" x2="-2914.1389" y2="566.345" gradientTransform="matrix(-0.9994 3.438121e-02 -3.438121e-02 -0.9994 -1628.4175 894.3887)">
			<stop  offset="0" style="stop-color:#071C3A"/>
			<stop  offset="0.5039" style="stop-color:#061B38"/>
			<stop  offset="0.7979" style="stop-color:#04192F"/>
			<stop  offset="1" style="stop-color:#001524"/>
		</linearGradient>
		<path class="st20" d="M1269.9,228.2l1.3,2.2l-0.1-0.4l4.7,4.2l0.7-2.2l4.3,2.8l-0.4,5.9l6.3-5.6l0.3,11.9l9-9.8
			c-2,3.6,2.4,13.3,2.4,13.3l3.7-7.2l13.9,9.1c-3.7-11.1-19.1-22.5-19.1-22.5l7.4,3.6l-19.9-15.7c3.1-1.5,8.3,0.4,8.3,0.4
			c-1.3-2.8-8.6-5.1-8.6-5.1l1.1-5c-3.3,5-13.1,1.4-13.4-1.2c-0.3-2.6,5.3-2.6,5.3-2.6c-2.8-1.7-9.8-2.3-10.6-2.4
			c-1.1,0.4-2,1-2.9,2l0.3,7.4l3.1-2.4l0.3,9.4l2.5-5L1269.9,228.2z M1279.6,230.4l1.5-0.1l-0.2,2.2L1279.6,230.4z M1278.5,224.3
			l3.1,0.5l-0.1,1.2L1278.5,224.3z"/>
		
			<linearGradient id="SVGID_21_" gradientUnits="userSpaceOnUse" x1="-2932.0559" y1="616.8722" x2="-2813.0676" y2="548.1743" gradientTransform="matrix(-0.9994 3.438121e-02 -3.438121e-02 -0.9994 -1628.4175 894.3887)">
			<stop  offset="0" style="stop-color:#071C3A"/>
			<stop  offset="0.4033" style="stop-color:#071E3B"/>
			<stop  offset="0.5486" style="stop-color:#09253D"/>
			<stop  offset="0.6522" style="stop-color:#0C3042"/>
			<stop  offset="0.7359" style="stop-color:#0F4149"/>
			<stop  offset="0.8076" style="stop-color:#145751"/>
			<stop  offset="0.8711" style="stop-color:#1A735C"/>
			<stop  offset="0.9286" style="stop-color:#219369"/>
			<stop  offset="0.9796" style="stop-color:#29B777"/>
			<stop  offset="1" style="stop-color:#2DC87E"/>
		</linearGradient>
		<path class="st21" d="M1175.1,249.4l-1.4,5.3l9.9-9.6l5.8,6l3-10.5l8.7,6.4l-0.4-12.3l5.2,3.6l0,0l0,0l2.4,1.7l-1-2.3l0.2-0.1
			l-0.3-0.6l-0.2,0.2l-2.6-5.9l4.3-3.4l-0.3-8.3l3.2,6.1l-0.4-13.3l7.9-0.9l-6.7-1.8l0.9-6.4c0,0-2-1.2-5.1-1.1
			c-3.5,4.2-10.8,6.5-10.8,6.5c2.7,0.8,6.9-1.6,6.9-1.6l-13.1,9.8l6.2-2.7l0.2,1.8l-6,2.5l-0.3,3.9l-5.8,1.1l-1.2,2.8l-11,9.7
			l11.4-6.2l-17.4,25.1L1175.1,249.4z M1206.9,237.2l0.4,0.8L1206.9,237.2z"/>
		
			<linearGradient id="SVGID_22_" gradientUnits="userSpaceOnUse" x1="-2867.7954" y1="547.6693" x2="-2948.7053" y2="628.5791" gradientTransform="matrix(-0.9994 3.438121e-02 -3.438121e-02 -0.9994 -1628.4175 894.3887)">
			<stop  offset="0" style="stop-color:#071C3A"/>
			<stop  offset="0.6108" style="stop-color:#03182E"/>
			<stop  offset="1" style="stop-color:#001524"/>
		</linearGradient>
		<path class="st22" d="M1213.2,231l-3.8-3.5l-0.6,0.4l-0.3-8.3l3.2,6.1l-0.4-13.3l7.9-0.9l-6.7-1.8l0.9-6.4c0,0-2-1.2-5.1-1.1
			c0.5-0.6,0.9-1.2,1.2-1.9l6.6-3.5l-4.4,0.9l11.4-7.4l20.7-1.2l5.3,3.2l5.4-0.2c0,0,3.5,3.8,6.4,2.6l0.1,2.4c0,0,7.8-0.1,11.1,2.2
			c0,0-4.6,0.4-5.5,2.4c0,0,0,0,0.1,0c-1.1,0.4-2,1-2.9,2l0.3,7.4l3.1-2.4l0.3,9.4l2.5-5l0.2,15l1.3,2.2l1.2,7.2l4,6.8l-3.5-1.9
			l0.4,5.9l-3.5-5l-0.8,6.8c0,0-6.4-11-9.3-9.3c-1.2-2.2-2.1-3.8-2.1-3.8l3.5-0.9l-3.5-5.7l7,0.7l-12.9-6l4.9,0.5
			c0,0-3.1-3.5-8.3-8.4s-22.5,0.8-22.5,0.8l3.3,1.5l-10.5,7.1l6.9-2.1l-10.8,9.9l0.1-0.1l-7.4,3.3l-0.3-0.6L1213.2,231z"/>
	</g>
</g>
<circle class="st23" cx="240.6" cy="351.8" r="2.2"/>
<g>
	<g>
		
			<linearGradient id="SVGID_23_" gradientUnits="userSpaceOnUse" x1="156.847" y1="620.152" x2="255.1358" y2="620.152" gradientTransform="matrix(0.9983 5.772121e-02 5.772121e-02 -0.9983 95.3906 963.2474)">
			<stop  offset="0" style="stop-color:#071C3A"/>
			<stop  offset="0.6108" style="stop-color:#03182E"/>
			<stop  offset="1" style="stop-color:#001524"/>
		</linearGradient>
		<path class="st24" d="M371.6,605.7l-39.1-22l0.8-23.6c5.7,3.8,16.2,9.9,25.1,9.9c0,0-15-7.1-24.8-18l0.2-4.9
			c6.1,3.5,15.4,8.1,19.6,7.5c0,0-11-8.1-19.3-16.2l15.1-435.2l-6.5-16.1l-33.7,438.1c-12.3,1.6-27.6,7.1-29.2,24.7
			c0,0,11-9.9,17.7-9.9l-21.8,23.8l20.3-10.6c0,0-9.9,19.2-14.6,22.5c3-1.8,15.4-9.1,17.4-14.3c0,0-1.7,12.9-6.2,14.9
			c0,0,6.7,0.5,12.6-1.1l-0.6,8.1l-19,11.4l18.6-6.7l-0.6,8.4l-27.4,16.9l26.9-10.7l-1.6,20.6l29.6,1.7l1.2-36.9L371.6,605.7z"/>
		
			<linearGradient id="SVGID_24_" gradientUnits="userSpaceOnUse" x1="162.6421" y1="397.3975" x2="163.2921" y2="397.3975" gradientTransform="matrix(0.9983 5.772121e-02 5.772121e-02 -0.9983 95.3906 963.2474)">
			<stop  offset="0" style="stop-color:#071C3A"/>
			<stop  offset="0.6108" style="stop-color:#03182E"/>
			<stop  offset="1" style="stop-color:#001524"/>
		</linearGradient>
		<path class="st25" d="M281.4,575.8c-0.4,0.3-0.7,0.4-0.7,0.4C280.9,576.1,281.1,575.9,281.4,575.8z"/>
	</g>
	<g>
		<polygon class="st2" points="395.5,521.2 400.1,532.1 401.9,523.1 		"/>
		<polygon class="st2" points="400.1,532.1 399.9,533 400.7,533.2 		"/>
		
			<linearGradient id="SVGID_25_" gradientUnits="userSpaceOnUse" x1="231.4162" y1="469.8999" x2="375.151" y2="469.8999" gradientTransform="matrix(0.9983 5.772121e-02 5.772121e-02 -0.9983 95.3906 963.2474)">
			<stop  offset="0" style="stop-color:#071C3A"/>
			<stop  offset="0.1413" style="stop-color:#08203C"/>
			<stop  offset="0.2946" style="stop-color:#0B2D41"/>
			<stop  offset="0.4535" style="stop-color:#104349"/>
			<stop  offset="0.6164" style="stop-color:#166255"/>
			<stop  offset="0.7823" style="stop-color:#1F8965"/>
			<stop  offset="0.9483" style="stop-color:#29B878"/>
			<stop  offset="1" style="stop-color:#2DC87E"/>
		</linearGradient>
		<path class="st26" d="M429.5,503.5l19.8,13l-3.7-7.5l25.2,15.4l-30.3-24l4.2,0.3l-22.4-10.7l4.7-3.5L406,476l26.3,9.5L410.9,470
			l-0.7-4.4c-12.2-4.7-29.4-9.8-41-6c-19.6,6.3-12.4,22-12.4,22c1.6-11.5,16.7-11.8,16.7-11.8l-7.6,7l-3.2,10.5l1.2,12.4l0.1-0.2
			l3.9,5.3l-3.9,8.3l5.1,5.2l3.5-2.1l5.8,4.3l-1.6-8.9l6.7,5.8l-3.8,14.4l7.3-4.7l13.1,5.9l0.2-0.9l-4.6-10.9l6.4,2l-1.8,9l0.5,1.2
			l-0.7-0.3l-1.7,8.3l7.6-3.7l6,11.7l-1.1-21.2l9.2,5.1l6.9-2.8l2.4,6.4l4-4.6l0.6,6l5.3,0.8l3.2,5.1l6.7-3.4l7.6,14.1l-1.1-17.5
			l14.6,23.5l0.5-9.4l23.2,15.3L429.5,503.5z"/>
		
			<linearGradient id="SVGID_26_" gradientUnits="userSpaceOnUse" x1="194.4682" y1="494.0761" x2="232.6847" y2="427.8832" gradientTransform="matrix(0.9983 5.772121e-02 5.772121e-02 -0.9983 95.3906 963.2474)">
			<stop  offset="0" style="stop-color:#071C3A"/>
			<stop  offset="0.1288" style="stop-color:#08213C"/>
			<stop  offset="0.2843" style="stop-color:#0B3042"/>
			<stop  offset="0.4535" style="stop-color:#11484B"/>
			<stop  offset="0.6324" style="stop-color:#186A59"/>
			<stop  offset="0.817" style="stop-color:#22966A"/>
			<stop  offset="1" style="stop-color:#2DC87E"/>
		</linearGradient>
		<path class="st27" d="M348.6,487.4c0,0-10.1-5.2-22.6-5.9c-18.3-0.6-20.4,11.1-20.4,11.1c3.7-4.7,13.8-2,13.8-2l-12,8.4l-4.8,16
			l13.9-4.3l-5,18l21.4-15.7l-2.6,11.7l3-0.5l2.3,16.9l8.5-10.2l8.4,6.6l-2.7-14.8l14.1,21L360,526l12.1-0.3l-5.2-6.1l2.2-1.3
			L364,513l-1,2l-21.2-24.8c0,0,0,0,0.1,0l-4.5-2.5L348.6,487.4z"/>
		
			<linearGradient id="SVGID_27_" gradientUnits="userSpaceOnUse" x1="24.2733" y1="481.9872" x2="285.5208" y2="481.9872" gradientTransform="matrix(0.9983 5.772121e-02 5.772121e-02 -0.9983 95.3906 963.2474)">
			<stop  offset="0" style="stop-color:#071C3A"/>
			<stop  offset="0.6108" style="stop-color:#03182E"/>
			<stop  offset="1" style="stop-color:#001524"/>
		</linearGradient>
		<path class="st28" d="M369.2,459.6c11.6-3.7,28.8,1.3,41,6v-0.2l-19.7-9.5l7.6,0.4c0,0-38.8-27.7-68.7-29.4
			c-17.7-1.1-27-4.8-57,14.7c-11.9,4.4-35,13.6-46.1,20.6l20.9-2.3l10.7-1.2l-13,3l-60.7,13.9l16.2,1l-9.8,8.3l17-1.3l0.4,8.6
			l0.3,5.1l-10.1,3.4l-21.1,7.1l13.1-0.1c-5.8,5.1-11.8,10.4-18.2,16.1l6.6-1.5l-35.1,28l18.6-4.7l-1.1,5.8l39.1-34.4l-1.2,9.4
			l12.2-19l6.2,16.6l4.4-24l18.1,23.4l-0.5-22.5l11,11.6c0,0,8.8-19,21.7-13l0.4,9.8l11.8-7.5l12.4,17.7l1.6-20.3l9.1-0.4l-0.1,0.2
			l12-8.4c0,0-10-2.8-13.8,2c0,0,2-11.6,20.4-11.1c12.5,0.7,22.6,5.9,22.6,5.9l-11.2,0.5l4.5,2.5c1.2,0.3,16.2,3.5,18.3,16.2
			l3.8-6.8l-1.2-12.4l3.2-10.5l7.6-7c0,0-15.1,0.3-16.7,11.8C356.7,481.6,349.5,465.9,369.2,459.6z"/>
	</g>
	<g>
		<polygon class="st2" points="367.6,264.4 369.5,268.9 370.2,265.2 		"/>
		<polygon class="st2" points="369.5,268.9 369.4,269.2 369.7,269.3 		"/>
		
			<linearGradient id="SVGID_28_" gradientUnits="userSpaceOnUse" x1="213.7961" y1="718.1181" x2="273.0358" y2="718.1181" gradientTransform="matrix(0.9983 5.772121e-02 5.772121e-02 -0.9983 95.3906 963.2474)">
			<stop  offset="0" style="stop-color:#071C3A"/>
			<stop  offset="0.1413" style="stop-color:#08203C"/>
			<stop  offset="0.2946" style="stop-color:#0B2D41"/>
			<stop  offset="0.4535" style="stop-color:#104349"/>
			<stop  offset="0.6164" style="stop-color:#166255"/>
			<stop  offset="0.7823" style="stop-color:#1F8965"/>
			<stop  offset="0.9483" style="stop-color:#29B878"/>
			<stop  offset="1" style="stop-color:#2DC87E"/>
		</linearGradient>
		<path class="st29" d="M381.6,257.1l8.2,5.3l-1.5-3.1l10.4,6.3l-12.5-9.9l1.7,0.1l-9.2-4.4l2-1.5l-8.7-4.3l10.8,3.9l-8.8-6.4
			l-0.3-1.8c-5.1-2-12.1-4-16.9-2.5c-8.1,2.6-5.1,9.1-5.1,9.1c0.6-4.7,6.9-4.9,6.9-4.9l-3.1,2.8l-1.3,4.3l0.5,5.1v-0.1l1.6,2.2
			l-1.6,3.4l2,2.1l1.4-0.9l2.4,1.8l-0.6-3.6l2.8,2.4l-1.6,5.9l3-2l5.4,2.4l0.1-0.4l-1.9-4.5l2.7,0.8l-0.7,3.7l0.2,0.4l-0.3-0.1
			l-0.7,3.5l3.2-1.5l2.5,4.8L374,267l3.8,2.1l2.8-1.2l1,2.7l1.7-2l0.3,2.5l2.2,0.4l1.3,2.1l2.8-1.3l3.2,5.9l-0.4-7.2l6,9.7l0.3-3.9
			l9.6,6.3L381.6,257.1z"/>
		
			<linearGradient id="SVGID_29_" gradientUnits="userSpaceOnUse" x1="198.5802" y1="728.0052" x2="214.3347" y2="700.7177" gradientTransform="matrix(0.9983 5.772121e-02 5.772121e-02 -0.9983 95.3906 963.2474)">
			<stop  offset="0" style="stop-color:#071C3A"/>
			<stop  offset="0.1288" style="stop-color:#08213C"/>
			<stop  offset="0.2843" style="stop-color:#0B3042"/>
			<stop  offset="0.4535" style="stop-color:#11484B"/>
			<stop  offset="0.6324" style="stop-color:#186A59"/>
			<stop  offset="0.817" style="stop-color:#22966A"/>
			<stop  offset="1" style="stop-color:#2DC87E"/>
		</linearGradient>
		<path class="st30" d="M348.2,250.4c0,0-4.2-2.1-9.3-2.5c-7.5-0.3-8.4,4.5-8.4,4.5c1.5-2,5.7-0.8,5.7-0.8l-5,3.5l-2,6.6l5.8-1.8
			l-2,7.5l8.8-6.5l-1.1,4.8l1.2-0.2l1,6.9l3.5-4.2l3.5,2.7l-1.1-6.1l5.9,8.7l-1.7-7.3l5-0.1l-2.1-2.5l0.9-0.5l-2-2.1l-0.4,0.9
			l-8.8-10.2l0,0l-1.9-1.1L348.2,250.4z"/>
		
			<linearGradient id="SVGID_30_" gradientUnits="userSpaceOnUse" x1="128.5013" y1="723.1161" x2="236.0802" y2="723.1161" gradientTransform="matrix(0.9983 5.772121e-02 5.772121e-02 -0.9983 95.3906 963.2474)">
			<stop  offset="0" style="stop-color:#071C3A"/>
			<stop  offset="0.6108" style="stop-color:#03182E"/>
			<stop  offset="1" style="stop-color:#001524"/>
		</linearGradient>
		<path class="st31" d="M356.7,239c4.8-1.5,11.9,0.5,16.9,2.5v-0.1l-8.1-3.9l3.1,0.2c0,0-16-11.4-28.3-12.2
			c-7.3-0.4-11.1-2-23.4,6.1c-4.9,1.9-14.4,5.6-19,8.5l8.6-1l4.4-0.5l-5.3,1.2l-25,5.8l6.7,0.4l-4,3.4l7-0.5l0.2,3.5l0.1,2.1
			l-4.2,1.4l-8.7,2.9l5.4-0.1c-2.4,2-4.9,4.3-7.5,6.7l2.8-0.6l-14.5,11.5l7.6-2l-0.4,2.4l16.2-14.2l-0.5,3.9l5.1-7.8l2.6,6.8
			l1.8-9.9l7.5,9.7l-0.3-9.2l4.5,4.8c0,0,3.6-7.8,9-5.3l0.2,4l4.9-3.1l5.1,7.3l0.7-8.3l3.7-0.2v0.1l5-3.5c0,0-4.2-1.2-5.7,0.8
			c0,0,0.9-4.8,8.4-4.5c5.1,0.3,9.3,2.5,9.3,2.5l-4.6,0.2l1.9,1.1c0.5,0.1,6.7,1.4,7.5,6.7l1.6-2.8l-0.5-5.1l1.3-4.3l3.1-2.8
			c0,0-6.2,0.1-6.9,4.9C351.7,248.1,348.7,241.6,356.7,239z"/>
	</g>
	<g>
		
			<linearGradient id="SVGID_31_" gradientUnits="userSpaceOnUse" x1="185.1254" y1="595.8721" x2="230.2932" y2="517.6392" gradientTransform="matrix(0.9983 5.772121e-02 5.772121e-02 -0.9983 95.3906 963.2474)">
			<stop  offset="0" style="stop-color:#071C3A"/>
			<stop  offset="0.2644" style="stop-color:#081E3B"/>
			<stop  offset="0.4188" style="stop-color:#09273E"/>
			<stop  offset="0.5451" style="stop-color:#0C3544"/>
			<stop  offset="0.656" style="stop-color:#11494C"/>
			<stop  offset="0.757" style="stop-color:#176356"/>
			<stop  offset="0.8508" style="stop-color:#1E8363"/>
			<stop  offset="0.9371" style="stop-color:#26A871"/>
			<stop  offset="1" style="stop-color:#2DC87E"/>
		</linearGradient>
		<path class="st32" d="M371.3,397.3L352,383.6l6.2-2.7c0,0-31.9-11.4-41.9-2.4s-16,15.4-16,15.4l9.1-0.7L285.2,404l13-1.1
			l-6.7,10.5l6.7,1.8c0,0-2,2.9-4.1,6.9c0.1,0.1,0.2,0.1,0.2,0.1l4,10.6l3.2-7l7.1,5.3l-16.8,8.8l18-5.7l1.2,12.9l6-11.5l7.2,0.6
			l3.5,16.4l3-16.3l24.3,13l-9.9-16.3l12.3,8.2l-14.6-15.7l8.3,2.1l-8.8-13.3l5-5.3l4.8,1.7l2.8,4.6l3.3-4.7l6.8,13.8l2.9-10.5
			l29.9,24.5l-19.4-26.5L358.6,393L371.3,397.3z"/>
		
			<linearGradient id="SVGID_32_" gradientUnits="userSpaceOnUse" x1="62.4268" y1="575.6287" x2="157.0828" y2="575.6287" gradientTransform="matrix(0.9983 5.772121e-02 5.772121e-02 -0.9983 95.3906 963.2474)">
			<stop  offset="0" style="stop-color:#071C3A"/>
			<stop  offset="0.5039" style="stop-color:#061B38"/>
			<stop  offset="0.7979" style="stop-color:#04192F"/>
			<stop  offset="1" style="stop-color:#001524"/>
		</linearGradient>
		<path class="st33" d="M276.4,369.8l4.3,9.3l0.8-17.6l5.7,4.7l0.8-13.8c-1.6-1.9-3.5-3-5.4-3.8c-1.6,0.1-14.6,1.1-19.9,4.1
			c0,0,10.5,0.3,9.9,5.1c-0.6,4.9-19.1,11.1-25,1.7l1.8,9.4c0,0-13.7,3.8-16.3,9.1c0,0,9.8-3.2,15.4-0.3l-37.7,28.6l13.9-6.5
			c0,0-29,20.6-36.5,41.1l26.4-16.2l6.7,13.7c0,0,8.5-17.9,5.1-24.8l16.3,18.6l1-22.2l11.5,10.7l-0.4-11.2l8.2-5l1.2,4.3l9.1-7.6
			l-0.1,0.6l2.7-4.1L276.4,369.8z M254.5,405.2l-0.2-4.2l2.8,0.2L254.5,405.2z M254,393.1l-0.1-2.3l5.8-0.9L254,393.1z"/>
		
			<linearGradient id="SVGID_33_" gradientUnits="userSpaceOnUse" x1="123.5777" y1="669.4304" x2="345.4702" y2="541.3208" gradientTransform="matrix(0.9983 5.772121e-02 5.772121e-02 -0.9983 95.3906 963.2474)">
			<stop  offset="0" style="stop-color:#071C3A"/>
			<stop  offset="0.4033" style="stop-color:#071E3B"/>
			<stop  offset="0.5486" style="stop-color:#09253D"/>
			<stop  offset="0.6522" style="stop-color:#0C3042"/>
			<stop  offset="0.7359" style="stop-color:#0F4149"/>
			<stop  offset="0.8076" style="stop-color:#145751"/>
			<stop  offset="0.8711" style="stop-color:#1A735C"/>
			<stop  offset="0.9286" style="stop-color:#219369"/>
			<stop  offset="0.9796" style="stop-color:#29B777"/>
			<stop  offset="1" style="stop-color:#2DC87E"/>
		</linearGradient>
		<path class="st34" d="M465.5,451.9l-31.4-47.7l20.9,12.2l-20.1-18.5l-2.2-5.2l-10.8-2.2l-0.3-7.2l-11.1-4.8l0.4-3.2l11.5,5.3
			l-24-18.8c0,0,7.9,4.6,12.8,3.3c0,0-13.6-4.7-19.9-12.6c-5.6-0.4-9.4,1.7-9.4,1.7l1.4,11.9l-12.5,3l14.7,2l-1.4,24.8l6.2-11.3
			l-0.9,15.5l7.7,6.6l-5,10.8l-0.4-0.4l-0.4,1.2l0.4,0.2l-2,4.3l4.5-3h0.1l0,0l9.9-6.6l-1.3,22.9l16.4-11.6l5.1,19.6l11.1-11
			l18,18.3l-2.5-9.9L465.5,451.9z M391.8,418.5l0.6-1.4L391.8,418.5z"/>
		
			<linearGradient id="SVGID_34_" gradientUnits="userSpaceOnUse" x1="243.4746" y1="540.5506" x2="92.5917" y2="691.4335" gradientTransform="matrix(0.9983 5.772121e-02 5.772121e-02 -0.9983 95.3906 963.2474)">
			<stop  offset="0" style="stop-color:#071C3A"/>
			<stop  offset="0.6108" style="stop-color:#03182E"/>
			<stop  offset="1" style="stop-color:#001524"/>
		</linearGradient>
		<path class="st35" d="M381.1,405.4l7.4-6.3l1.1,1l0.9-15.5l-6.2,11.3l1.4-24.8l-14.7-2l12.5-3l-1.4-11.9c0,0,3.9-2.1,9.4-1.7
			c-0.9-1.2-1.7-2.3-2.2-3.5l-12.2-7l8.3,1.9l-21-14.2l-38.5-3.3l-10.1,5.7l-10-0.6c0,0-6.7,6.9-12.1,4.5l-0.3,4.5
			c0,0-14.6-0.5-20.8,3.6c0,0,8.7,0.9,10.2,4.8c0,0-0.1,0-0.2,0c2,0.8,3.8,2,5.4,3.8l-0.8,13.8l-5.7-4.7l-0.8,17.6l-4.3-9.3l-0.9,28
			l-2.7,4.1l-2.6,13.4l-7.7,12.6l6.7-3.4l-0.9,10.8l6.7-9.1l1.2,12.9c0,0,12.4-20.2,17.7-16.9c2.2-4,4.1-6.9,4.1-6.9l-6.7-1.8
			L298,403l-13,1.1l24.3-10.6l-9.1,0.7c0,0,5.9-6.5,16-15.4c10-9,41.9,2.4,41.9,2.4l-6.2,2.7l19.3,13.7l-12.9-4.3l19.7,18.8
			l-0.2-0.2l13.5,6.5l0.4-1.2L381.1,405.4z"/>
	</g>
	<g>
		
			<linearGradient id="SVGID_35_" gradientUnits="userSpaceOnUse" x1="197.6474" y1="796.1125" x2="197.6474" y2="746.1385" gradientTransform="matrix(0.9983 5.772121e-02 5.772121e-02 -0.9983 95.3906 963.2474)">
			<stop  offset="0" style="stop-color:#071C3A"/>
			<stop  offset="0.2644" style="stop-color:#081E3B"/>
			<stop  offset="0.4188" style="stop-color:#09273E"/>
			<stop  offset="0.5451" style="stop-color:#0C3544"/>
			<stop  offset="0.656" style="stop-color:#11494C"/>
			<stop  offset="0.757" style="stop-color:#176356"/>
			<stop  offset="0.8508" style="stop-color:#1E8363"/>
			<stop  offset="0.9371" style="stop-color:#26A871"/>
			<stop  offset="1" style="stop-color:#2DC87E"/>
		</linearGradient>
		<path class="st36" d="M325.4,179.9c-7.3,1.9-10.5,10.6-10.5,10.6l6.3-1.3c-6.7,4.8-7.7,10.1-7.8,12.3l0.3,0.2c0,0,2.7-2.9,5.7-1.8
			c0,0-5.1,6.4-5.9,11.1c0,0,7.5-6.7,9.6-4.8l-10.7,13l10.4-4.9c0,0-4.3,11.1-7.4,13c0,0,7.9-4.9,8.6-6l-1,7.8c0,0,6.8-6.9,7-8.9
			c0,0,7.5,0.4,8.9,5.1c0,0,0.3-5.1-1.2-6.8c0,0,15.4,6.6,21.4,5.1c0,0-13.6-6.7-17.1-14c0,0,13.2,5.9,15.7,4.9
			c0,0-9.9-6.4-10.4-10.6c0,0,3.3,2,6.2,0.8c0,0-6.3-3.8-4.6-6.8c0,0,6.9-1.8,8.9,3.4c2,5.2,0.7,6.4,0.7,6.4s2.9-1.9,2.8-4.6
			c0,0,0.1,0.1,0.1,0.2C355.8,180.8,332.5,178.1,325.4,179.9z"/>
		
			<linearGradient id="SVGID_36_" gradientUnits="userSpaceOnUse" x1="209.7082" y1="753.3997" x2="170.673" y2="821.0104" gradientTransform="matrix(0.9983 5.772121e-02 5.772121e-02 -0.9983 95.3906 963.2474)">
			<stop  offset="0" style="stop-color:#071C3A"/>
			<stop  offset="0.5039" style="stop-color:#061B38"/>
			<stop  offset="0.7979" style="stop-color:#04192F"/>
			<stop  offset="1" style="stop-color:#001524"/>
		</linearGradient>
		<path class="st37" d="M365.6,201.6c-1.9-2.1-0.4-16.8-0.4-16.8l-2.8,4.6c-2.2-7.5,3.1-14.7,3.1-14.7l-3.8,1.7
			c1.2-5.3,3.7-8.3,6.1-10c0.1-0.4,1.5-4.7,5.5-4.3c0,0-2-2.8-9.4-1.5c0,0-2.8-4.3,1.7-4.8c0,0-5.9-9.4-17.3-6.8
			c-11.4,2.7-10.9,0.4-10.9,0.4s-5.9-5.1-17,0.6l3.4,3.1c0,0-7.5-0.3-11.9,1.2c0,0,6.6,1.9,6.7,3.5c0,0-10.2-0.7-11.8,1.6
			c0,0,4.6,1,4.4,2.2c0,0-9.8,4.6-12.9,8.9c0,0,11-4.5,13.1-3.6c0,0-6.9,4.2-8,6.8c0,0,10-5.5,12-4.3c0,0-0.5,4.5-6.7,3.9
			c0,0,2.1,4.1-0.8,4.4c-2.9,0.4-7.3-0.7-10.1,2.8c0,0,4.4-0.7,5.9,2.3c0,0-11.5,4.3-14,9.1c0,0,10.4-6.5,14.6-4.2
			c0,0,1,5.8-10.8,13.8l5-0.8c0,0-8.9,13.8-7.2,20.5c0,0,7.4-12.2,9.6-11.3c2.2,0.9,2.5,5,2.5,5s1.7-8.4,0.1-11c0,0,5.5-0.1,6.4,4.5
			c0,0,2.2-6.6-0.5-9.5l4.3,2.4c0.1-2.2,1.2-7.5,7.8-12.3l-6.3,1.3c0,0,3.2-8.7,10.5-10.6c7.1-1.8,30.4,0.9,36.2,23.1
			c0.8,0.9,4.7,5.8,0.8,10c0,0,2.6-1.4,2.8,1.8l3.6-13.8L365.6,201.6z"/>
		
			<linearGradient id="SVGID_37_" gradientUnits="userSpaceOnUse" x1="220.4537" y1="780.6776" x2="253.3797" y2="780.6776" gradientTransform="matrix(0.9983 5.772121e-02 5.772121e-02 -0.9983 95.3906 963.2474)">
			<stop  offset="0" style="stop-color:#071C3A"/>
			<stop  offset="0.1448" style="stop-color:#0B2E41"/>
			<stop  offset="0.4362" style="stop-color:#155E54"/>
			<stop  offset="0.8439" style="stop-color:#26A972"/>
			<stop  offset="1" style="stop-color:#2DC87E"/>
		</linearGradient>
		<path class="st38" d="M385.1,209.2l4.1,0.4l-9.3-8.7l4.1,0.3l-7.1-7.3c0,0,5.6-0.2,8.3,3.1c0,0-2.5-11.2-11-15.6
			c0,0,6.3-1.3,9.9,1.1c0,0-10.9-7.5-12.5-12.6c0,0,5.7-1.2,7.3,0c0,0-4.3-3.7-11-3.5l0,0c-2.4,1.7-5,4.7-6.1,10l3.8-1.7
			c0,0-5.3,7.2-3.1,14.7l2.8-4.6c0,0-1.5,14.7,0.4,16.8l3.2-0.7l-3.6,13.8c0,0.1,0,0.2,0,0.2s5.6-9.2,10.2-5.6c0,0-5,5-5.2,8.9
			c0,0,2.3-3.1,4.3-1.2c0,0,1.6,4-1.3,5.7c0,0,4.4-1.2,6-6c0,0,9.2,2.3,12.4,12.5C391.7,229,389.3,213.3,385.1,209.2z"/>
	</g>
	<g>
		
			<linearGradient id="SVGID_38_" gradientUnits="userSpaceOnUse" x1="189.3519" y1="679.0611" x2="217.2959" y2="630.6606" gradientTransform="matrix(0.9983 5.772121e-02 5.772121e-02 -0.9983 95.3906 963.2474)">
			<stop  offset="0" style="stop-color:#071C3A"/>
			<stop  offset="0.2644" style="stop-color:#081E3B"/>
			<stop  offset="0.4188" style="stop-color:#09273E"/>
			<stop  offset="0.5451" style="stop-color:#0C3544"/>
			<stop  offset="0.656" style="stop-color:#11494C"/>
			<stop  offset="0.757" style="stop-color:#176356"/>
			<stop  offset="0.8508" style="stop-color:#1E8363"/>
			<stop  offset="0.9371" style="stop-color:#26A871"/>
			<stop  offset="1" style="stop-color:#2DC87E"/>
		</linearGradient>
		<path class="st39" d="M358.8,307.6l-12-8.4l3.8-1.7c0,0-19.7-7-25.9-1.5s-9.9,9.6-9.9,9.6l5.6-0.4l-15,6.6l8.1-0.6l-4.1,6.5
			l4.1,1.1c0,0-1.2,1.8-2.6,4.3c0.1,0,0.1,0.1,0.2,0.1l2.5,6.6l2-4.3l4.4,3.3l-10.4,5.4l11.1-3.5l0.7,8l3.7-7.1l4.4,0.4l2.1,10.2
			l1.9-10.1l15.1,8.1l-6.2-10.1l7.6,5.1L341,325l5.1,1.3l-5.4-8.3l3.1-3.3l2.9,1.1l1.7,2.8l2-2.9l4.3,8.6l1.8-6.5l18.5,15.2
			l-12.1-16.4L350.8,305L358.8,307.6z"/>
		
			<linearGradient id="SVGID_39_" gradientUnits="userSpaceOnUse" x1="113.4531" y1="666.4411" x2="172.0641" y2="666.4411" gradientTransform="matrix(0.9983 5.772121e-02 5.772121e-02 -0.9983 95.3906 963.2474)">
			<stop  offset="0" style="stop-color:#071C3A"/>
			<stop  offset="0.5039" style="stop-color:#061B38"/>
			<stop  offset="0.7979" style="stop-color:#04192F"/>
			<stop  offset="1" style="stop-color:#001524"/>
		</linearGradient>
		<path class="st40" d="M300,290.5l2.7,5.8l0.5-10.8l3.5,2.9l0.5-8.5c-1-1.2-2.1-1.9-3.4-2.3c-1,0.1-9,0.7-12.3,2.5
			c0,0,6.5,0.2,6,3.2c-0.4,3-11.8,6.8-15.5,1.1l1.1,5.8c0,0-8.4,2.4-10.1,5.6c0,0,6-2,9.5-0.2l-23.3,17.7l8.6-4
			c0,0-18,12.8-22.6,25.4l16.3-10l4.2,8.4c0,0,5.2-11.1,3.1-15.4l10.1,11.5l0.6-13.8l7.2,6.7l-0.3-6.9l5.1-3l0.7,2.7l5.6-4.7
			l-0.1,0.4l1.6-2.5L300,290.5z M286.4,312.6l-0.1-2.6l1.8,0.1L286.4,312.6z M286.2,305l-0.1-1.4l3.5-0.5L286.2,305z"/>
		
			<linearGradient id="SVGID_40_" gradientUnits="userSpaceOnUse" x1="151.3401" y1="724.6092" x2="288.6623" y2="645.3262" gradientTransform="matrix(0.9983 5.772121e-02 5.772121e-02 -0.9983 95.3906 963.2474)">
			<stop  offset="0" style="stop-color:#071C3A"/>
			<stop  offset="0.4033" style="stop-color:#071E3B"/>
			<stop  offset="0.5486" style="stop-color:#09253D"/>
			<stop  offset="0.6522" style="stop-color:#0C3042"/>
			<stop  offset="0.7359" style="stop-color:#0F4149"/>
			<stop  offset="0.8076" style="stop-color:#145751"/>
			<stop  offset="0.8711" style="stop-color:#1A735C"/>
			<stop  offset="0.9286" style="stop-color:#219369"/>
			<stop  offset="0.9796" style="stop-color:#29B777"/>
			<stop  offset="1" style="stop-color:#2DC87E"/>
		</linearGradient>
		<path class="st41" d="M417.1,341.4l-19.4-29.5l13,7.5l-12.4-11.5l-1.4-3.3l-6.7-1.4l-0.2-4.4l-6.8-3l0.3-2l7.1,3.3l-14.8-11.6
			c0,0,4.9,2.8,7.9,2c0,0-8.4-2.9-12.3-7.8c-3.5-0.3-5.9,1.1-5.9,1.1l0.9,7.4l-7.7,2l9.1,1.2l-0.9,15.4l3.8-6.9l-0.5,9.6l4.8,4.1
			l-3.1,6.7l-0.2-0.3l-0.3,0.8l0.2,0.1l-1.2,2.7l2.8-1.9l0,0l0,0l6.1-4.1l-0.8,14.2l10.2-7.2l3.2,12.1l6.8-6.8l11.1,11.4l-1.5-6.2
			L417.1,341.4z M371.5,320.7l0.4-0.9L371.5,320.7z"/>
		
			<linearGradient id="SVGID_41_" gradientUnits="userSpaceOnUse" x1="225.6225" y1="644.9488" x2="132.2459" y2="738.3254" gradientTransform="matrix(0.9983 5.772121e-02 5.772121e-02 -0.9983 95.3906 963.2474)">
			<stop  offset="0" style="stop-color:#071C3A"/>
			<stop  offset="0.6108" style="stop-color:#03182E"/>
			<stop  offset="1" style="stop-color:#001524"/>
		</linearGradient>
		<path class="st42" d="M364.8,312.6l4.5-3.9l0.7,0.6l0.5-9.6l-3.8,6.9l0.9-15.4l-9.1-1.2l7.7-1.9l-0.9-7.4c0,0,2.4-1.3,5.9-1.1
			c-0.5-0.7-1-1.4-1.3-2.2l-7.5-4.3l5.1,1.2l-13-8.8l-23.8-2l-6.2,3.5l-6.2-0.4c0,0-4.2,4.3-7.5,2.8l-0.2,2.8c0,0-9.1-0.3-12.9,2.3
			c0,0,5.3,0.5,6.3,2.9c0,0,0,0-0.1,0c1.2,0.4,2.4,1.2,3.4,2.3l-0.5,8.5l-3.5-2.9l-0.5,10.8l-2.7-5.8l-0.5,17.3l-1.6,2.5l-1.6,8.3
			l-4.8,7.8l4.2-2l-0.5,6.7l4.2-5.7l0.7,8c0,0,7.7-12.5,10.9-10.5c1.3-2.5,2.6-4.3,2.6-4.3l-4.1-1.1l4.1-6.5l-8.1,0.6l15-6.6
			l-5.6,0.4c0,0,3.6-4,9.9-9.6c6.2-5.5,25.9,1.5,25.9,1.5l-3.8,1.7l12,8.4l-8-2.6l12.1,11.6l-0.1-0.1l8.3,4l0.3-0.8L364.8,312.6z"/>
	</g>
</g>
<path class="st43" d="M1015.4,550.7c-4.8-18.4-20.5-37.1-30.8-43.4c-2.3-1.4-4.5-2.3-6.9-2.9C981.8,513.4,992.9,533.3,1015.4,550.7z
	"/>
<path class="st44" d="M1047.4,526.9c0,0,15.2-10.1,31.7-8.9c16.5,1.2,45.6-24,78.6,1.2c32.9,25.4,44.9,35.5,53.5,66.6
	c8.6,31.1-182.8,18.4-182.8,18.4S1019.5,541,1047.4,526.9z"/>
<linearGradient id="SVGID_42_" gradientUnits="userSpaceOnUse" x1="960.0191" y1="220.3569" x2="960.0191" y2="308.1392" gradientTransform="matrix(1 0 0 -1 0 812)">
	<stop  offset="0" style="stop-color:#353A69"/>
	<stop  offset="0.553" style="stop-color:#263265"/>
	<stop  offset="1" style="stop-color:#202F64"/>
</linearGradient>
<path class="st45" d="M977.7,504.4c-14.5-3.5-30.4,7.9-57.8,15.5c-5.4,1.5-10.2,3.5-14.4,5.9c-4.9,9.1-5,21.9,23.2,30.8
	c9.6,4,3.1,22-3,34.9h7.5l39.9-0.6c0,0,20.3,0,35.5-10.1c8.6-8.1,9.7-19.1,6.7-30.2C992.9,533.3,981.8,513.4,977.7,504.4z"/>
<linearGradient id="SVGID_43_" gradientUnits="userSpaceOnUse" x1="875.6815" y1="230.0879" x2="927.7521" y2="260.151" gradientTransform="matrix(1 0 0 -1 0 812)">
	<stop  offset="0" style="stop-color:#353A69"/>
	<stop  offset="1" style="stop-color:#202F64"/>
</linearGradient>
<path class="st46" d="M928.8,556.8c-28.2-8.9-28.1-21.7-23.2-30.8c-20.3,11.5-27,31.5-28,44.1c-1.2,15.2,3.8,21.6,3.8,21.6h44.5
	C931.9,578.8,938.4,560.8,928.8,556.8z"/>
<linearGradient id="SVGID_44_" gradientUnits="userSpaceOnUse" x1="998.9418" y1="256.9628" x2="1093.7046" y2="256.9628" gradientTransform="matrix(1 0 0 -1 0 812)">
	<stop  offset="0" style="stop-color:#353A69"/>
	<stop  offset="0.553" style="stop-color:#263265"/>
	<stop  offset="1" style="stop-color:#202F64"/>
</linearGradient>
<path class="st47" d="M1093.6,572c-3.8-27.9-19-40.6-30.4-48.2c-14.2-10.1-41.1-4.1-64.2,5.6c4.9,6.2,16.2,17.7,37.6,24.8
	c8.5,3.5,11.1,21.8,11.7,37.2C1074.3,588.6,1095.1,582.9,1093.6,572z M1048,540.3c-1.2-5.1,2.6-6.3,2.6-6.3s8.9-3.8,11.4,3.8
	C1064.5,545.4,1049.3,545.4,1048,540.3z"/>
<path class="st48" d="M1044.2,545.4c0,0-7.6-5.1-6.3,3.8c1.2,8.9,25.4,20.3,36.7,10.1c11.4-10.1,1.2-32.9-15.2-31.7
	c-6.3,0,15.2,8.9,7.6,15.2C1059.6,549.1,1058.1,554.3,1044.2,545.4z"/>
<path class="st44" d="M1036.6,554.3c-21.4-7.1-32.7-18.6-37.6-24.8c-20.1,8.4-37.4,19.5-41,24.8c-7.6,11.4-2.6,39.3-2.6,39.3
	s52.5,2.3,92.8-2.1C1047.7,576.1,1045.1,557.8,1036.6,554.3z"/>
<path class="st48" d="M1050.6,534c0,0-3.8,1.2-2.6,6.3c1.2,5.1,16.5,5.1,13.9-2.6C1059.5,530.1,1050.6,534,1050.6,534z"/>
<g>
	
		<linearGradient id="SVGID_45_" gradientUnits="userSpaceOnUse" x1="1192.4684" y1="202.2743" x2="1084.2028" y2="389.7957" gradientTransform="matrix(1 0 0 -1 0 812)">
		<stop  offset="0" style="stop-color:#353A69"/>
		<stop  offset="0.553" style="stop-color:#263265"/>
		<stop  offset="1" style="stop-color:#202F64"/>
	</linearGradient>
	<path class="st49" d="M1191.6,461.6c10.6-25.5,4.5-64.4,1.4-79.9c-0.1,0.1-0.1,0.1-0.1,0.1h-32.5l-29.7,13.5l-52.7,43.2L1064.5,617
		l129.9-8.4C1193.2,589.3,1186.6,481.3,1191.6,461.6z"/>
	<path class="st48" d="M1244.4,476.9l-18.7-53.3c-8.6-14.9-15.4-25.7-17.8-29.5c-9.9-14.7-14.1-12.8-14.7-12.2
		c1.1,5.3,2.5,13.4,3.5,22.7l57.3,99L1244.4,476.9z"/>
	<path class="st50" d="M1191.6,461.6c3.2-7.6,4.9-16.4,5.6-25.4c-15.3,13.4-52.4,47.3-61,68.7c0,0-13.5-74.4-47.3-63.5
		c0,0-6.7,12.2-5.4,27.1c1.3,14.9-6.7,56.8-6.7,67.6s51.4,28.4,51.4,28.4l62.4-37.9C1189.5,497.7,1189.4,470.6,1191.6,461.6z"/>
	
		<linearGradient id="SVGID_46_" gradientUnits="userSpaceOnUse" x1="1242.5286" y1="203.3219" x2="1242.5286" y2="407.5129" gradientTransform="matrix(1 0 0 -1 0 812)">
		<stop  offset="0" style="stop-color:#3C3D63"/>
		<stop  offset="1" style="stop-color:#545268"/>
	</linearGradient>
	<path class="st51" d="M1282.6,539.1l-38.2-62.2l9.4,26.7l-57.3-99.1c1,9.8,1.5,20.9,0.7,31.8c-0.7,9.1-2.4,17.8-5.6,25.4
		c-2.2,9-2.1,36-1.2,64.9c1.1,34.6,3.4,71.6,4,82.2l99.9-6.5C1297.6,587.6,1292.1,564.7,1282.6,539.1z"/>
	
		<linearGradient id="SVGID_47_" gradientUnits="userSpaceOnUse" x1="1254.1141" y1="272.8941" x2="1254.1141" y2="388.4337" gradientTransform="matrix(1 0 0 -1 0 812)">
		<stop  offset="0" style="stop-color:#FFDBAE"/>
		<stop  offset="0.331" style="stop-color:#FECDA8"/>
		<stop  offset="0.956" style="stop-color:#FBA899"/>
		<stop  offset="1" style="stop-color:#FBA598"/>
	</linearGradient>
	<path class="st52" d="M1282.6,539.1c-14.9-39.8-39.7-85.9-56.9-115.5l18.7,53.3L1282.6,539.1z"/>
</g>
<linearGradient id="SVGID_48_" gradientUnits="userSpaceOnUse" x1="-169.9047" y1="265.7917" x2="-256.6093" y2="115.6148" gradientTransform="matrix(-1 0 0 -1 732 812)">
	<stop  offset="0" style="stop-color:#639051"/>
	<stop  offset="0.6994" style="stop-color:#2A4F59"/>
	<stop  offset="1" style="stop-color:#10325C"/>
</linearGradient>
<path class="st53" d="M854.7,628.4c-2.6-1.9-51.7-9.6-84.9-5.9c0,0,25.6-3.7,42.2-1c0,0-6.4-5.6-20.4-6.6c0,0,20.4-3.7,26.8-1
	c0,0-7.6-3.7-16.6-3.7c0,0,19.2-1.9,28.1,0c0,0,0-10.3-9-12.2c0,0,15.4,2.8,20.4,8.4c0,0-6.4-14.1-15.4-16c0,0,11.5,0,23,8.4
	l-2.6-4.7l7.6,1.9l-12.7-14.9l16.6,12.2l-1.2-15l5.1,12.2c0,0-3.8-7.5,6.4-13.1c0,0-7.6,10.3,0,13.1c0,0,10.2-7.5,5.1-18.8
	c0,0,6.4,5.6,5.1,16.9c0,0,3.8-10.3,10.2-12.2c0,0-5.1,7.5-2.6,10.3c0,0,14,1.9,14-5.6c0,0,6.4,3.7,6.4,7.5c0,0,3.8-8.4-1.2-11.3
	c0,0,6.4,1.9,12.8,10.3c0,0,9-18.8,21.7-26.3c0,0-12.8,14.1-11.5,22.5c0,0,12.8-20.7,20.4-22.5c0,0-14,15-17.8,28.1
	c0,0,17.8-5.6,29.4-27.2c0,0-7.6,19.7-10.2,24.4c0,0,23-21.6,23-49.8c0,0,1.2,36.6-14,50.7c0,0,28.1-36.6,56.2-38.5
	c0,0-31.9,12.2-30.6,27.2c0,0,17.8-1.9,24.2-16c0,0-2.6,16-11.5,19.7c0,0,21.7-3.7,21.7-12.2c0,0-1.2,12.2-3.8,16
	c0,0,24.2-18.8,9-45.1c0,0,10.2,18.8,7.6,29.1c0,0,9-15,19.2-18.8c0,0-23,25.4-20.4,36.6c0,0,24.2-16,31.9-32.8
	c0,0-7.6,25.4-21.7,34.7c0,0,16.6-3.7,34.5,0c0,0-10.2-1.9-17.8,3.7c0,0,25.6,9.4,35.8,0c0,0-9,10.3-23,8.4c0,0,31.9,13.1,42.2,5.6
	c0,0-11.5,10.3-24.2,5.6c0,0,11.5,7.5,20.4,6.6c0,0-25.6,5.6-12.8,16.9C1010,629.2,933.3,622.2,854.7,628.4z"/>
<polygon class="st2" points="-1.7,-202.4 -1.7,-201.5 6.1,-202.9 "/>
<path class="st2" d="M8.8-111.3c9.5,4.8,22.2-7,22.2-7l18.1,2l4.4-2.2l-13.3-21.1l-17.4,9.7l0.2-13.9c-10.1-5.5-19,0.7-24.8,7v33.3
	c5.6,0,9.6,0.4,9.6,0.4L8.8-111.3z"/>
<polygon class="st2" points="202.9,-87.8 202.6,-86.6 203.5,-86.1 "/>
<path class="st2" d="M82.8,538.6v4l0.5-4.2C83.1,538.5,83,538.6,82.8,538.6z"/>
<polygon class="st2" points="197.2,-103.8 202.9,-87.8 206.1,-100.4 "/>
<polygon class="st2" points="81.7,-123.6 81.7,-123.6 81.6,-123.6 "/>
<polygon class="st2" points="57.6,-120.4 67.4,-125.3 73.4,-142.2 60.5,-142.3 "/>
<polygon class="st2" points="108.5,-119.8 108.5,-120 108.4,-119.9 "/>
<path class="st2" d="M154-136.8l-6.1,9.6c-2.1-18.9-24.9-24.4-24.9-24.4l28.3,37L159-129L154-136.8z"/>
<path class="st2" d="M1408.3,461v-0.4c-0.1,0.1-0.2,0.1-0.3,0.2L1408.3,461z"/>
<path class="st2" d="M1323.4,455.7c0,0-8.6,9.5-4.2,18.5c2.5-4.3,4.9-8.3,7.1-11.6C1324.8,460.8,1323.5,458.5,1323.4,455.7z"/>
<path class="st2" d="M1352.5,462c1.2-1.9,2-3.5,2.1-5.1c0,0-7.1,4.6-13.8,2c0,0,13.6-8.9,9.8-15.4c0,0-15.4-3.5-19.4,8.1
	c-1.6,4.4-2.1,7.6-2.2,9.8C1336.8,460.5,1344.7,460.8,1352.5,462z"/>
<path class="st2" d="M1471.9-143.1l-0.1,13.9l-17.1-10.1l-13.8,20.8l4.3,2.3l18.1-1.5c0,0,12.4,12.2,22,7.6l0.7,8.1
	c0,0,2.4-0.1,6-0.2v-37.7C1486.7-144.3,1479.7-147.1,1471.9-143.1z"/>
<polygon class="st2" points="1287.8,-104.6 1290.7,-91.9 1296.9,-107.6 "/>
<polygon class="st2" points="1290.1,-90.2 1291,-90.6 1290.7,-91.9 "/>
<polygon class="st2" points="1492,-201.4 1492,-201.6 1490.4,-201.8 "/>
<path class="st2" d="M1408.3,343.4v-4.3l-4.6,4.5C1403.7,343.6,1405.5,343.5,1408.3,343.4z"/>
<polygon class="st2" points="1412.8,-124.4 1412.9,-124.4 1412.8,-124.5 "/>
<polygon class="st2" points="1385.9,-121.4 1386,-121.4 1385.9,-121.5 "/>
<polygon class="st2" points="1421.5,-142.8 1427.2,-125.8 1436.8,-120.7 1434.5,-142.6 "/>
<path class="st2" d="M1346.7-129.8l-5.8-9.8l-5.3,7.7l7.4,14.6l29.3-36.3C1372.2-153.5,1349.3-148.7,1346.7-129.8z"/>
<linearGradient id="SVGID_49_" gradientUnits="userSpaceOnUse" x1="-3026.5823" y1="276.6675" x2="-2573.0332" y2="276.6675" gradientTransform="matrix(-0.9964 8.497725e-02 -8.497725e-02 -0.9964 -1380.551 1092.5511)">
	<stop  offset="0" style="stop-color:#071C3A"/>
	<stop  offset="0.6108" style="stop-color:#03182E"/>
	<stop  offset="1" style="stop-color:#001524"/>
</linearGradient>
<path class="st54" d="M1314,585.4l1.1-0.6c0-0.1,0-0.1,0-0.2L1314,585.4z"/>
<linearGradient id="SVGID_50_" gradientUnits="userSpaceOnUse" x1="-3026.5823" y1="396.4849" x2="-2573.0332" y2="396.4849" gradientTransform="matrix(-0.9964 8.497725e-02 -8.497725e-02 -0.9964 -1380.551 1092.5511)">
	<stop  offset="0" style="stop-color:#071C3A"/>
	<stop  offset="0.6108" style="stop-color:#03182E"/>
	<stop  offset="1" style="stop-color:#001524"/>
</linearGradient>
<path class="st55" d="M1329.9,465.7c0,0-1.1-1-1-4.4c-0.7,0.1-1.3,0.2-2,0.3c-0.3,0.4-0.4,0.7-0.7,1.1
	C1328.1,464.6,1329.9,465.7,1329.9,465.7z"/>
<linearGradient id="SVGID_51_" gradientUnits="userSpaceOnUse" x1="-3026.5823" y1="382.6045" x2="-2573.0332" y2="382.6045" gradientTransform="matrix(-0.9964 8.497725e-02 -8.497725e-02 -0.9964 -1380.551 1092.5511)">
	<stop  offset="0" style="stop-color:#071C3A"/>
	<stop  offset="0.6108" style="stop-color:#03182E"/>
	<stop  offset="1" style="stop-color:#001524"/>
</linearGradient>
<path class="st56" d="M1322,478.1c-1.2-1.2-2.1-2.6-2.8-3.9c-1.3,2.4-2.6,4.9-3.9,7.5c0.4,0.6,0.6,1,0.6,1
	C1316,474.9,1322,478.1,1322,478.1z"/>
<polygon class="st2" points="81.7,-123.6 81.7,-123.6 81.6,-123.6 "/>
<polygon class="st2" points="202.9,-87.8 202.6,-86.6 203.5,-86.1 "/>
<polygon class="st2" points="108.5,-119.8 108.5,-120 108.4,-119.9 "/>
<polygon class="st2" points="1287.8,-104.6 1290.7,-91.9 1296.9,-107.6 "/>
<polygon class="st2" points="1290.1,-90.2 1291,-90.6 1290.7,-91.9 "/>
<polygon class="st2" points="57.6,-120.4 67.4,-125.3 73.4,-142.2 60.5,-142.3 "/>
<polygon class="st2" points="197.2,-103.8 202.9,-87.8 206.1,-100.4 "/>
<path class="st2" d="M154-136.8l-6.1,9.6c-2.1-18.9-24.9-24.4-24.9-24.4l28.3,37L159-129L154-136.8z"/>
<polygon class="st2" points="1412.8,-124.4 1412.9,-124.4 1412.8,-124.5 "/>
<path class="st2" d="M1346.7-129.8l-5.8-9.8l-5.3,7.7l7.4,14.6l29.3-36.3C1372.2-153.5,1349.3-148.7,1346.7-129.8z"/>
<polygon class="st2" points="1385.9,-121.4 1386,-121.4 1385.9,-121.5 "/>
<polygon class="st2" points="1421.5,-142.8 1427.2,-125.8 1436.8,-120.7 1434.5,-142.6 "/>
<g>
	
		<linearGradient id="SVGID_52_" gradientUnits="userSpaceOnUse" x1="66.295" y1="199.3234" x2="67.0683" y2="199.3234" gradientTransform="matrix(0.9938 0.1108 -0.1108 0.9938 31.3904 349.6968)">
		<stop  offset="0" style="stop-color:#071C3A"/>
		<stop  offset="0.6108" style="stop-color:#03182E"/>
		<stop  offset="1" style="stop-color:#001524"/>
	</linearGradient>
	<path class="st57" d="M76,554.9c-0.5,0.3-0.8,0.5-0.8,0.5C75.4,555.3,75.7,555.2,76,554.9z"/>
	
		<linearGradient id="SVGID_53_" gradientUnits="userSpaceOnUse" x1="-104.662" y1="-108.5583" x2="321.9513" y2="-108.5583" gradientTransform="matrix(0.9938 0.1108 -0.1108 0.9938 31.3904 349.6968)">
		<stop  offset="0" style="stop-color:#071C3A"/>
		<stop  offset="0.6108" style="stop-color:#03182E"/>
		<stop  offset="1" style="stop-color:#001524"/>
	</linearGradient>
	<path class="st58" d="M310,244.8l-4-9.2l29,19.9L300.6,225l4.9,0.6l-25.9-14.1l5.8-3.9L261.1,194l30.6,13l-24.4-19.8l-0.6-5.5
		l-17-9.4l-1.8-2.7l5.1,0.6c0,0-3.4-2.7-9.1-6.8L233.1,147l20.3,11.1l-3.3,6.2l7.1-4.2l0.1,0l0-0.1l15.5-9.1l-3.8,34.3l25.7-16.1
		l6.1,29.8l17.5-15.6l25.5,28.9l-2.9-15.2l20.5,17.1l-43.3-74.1l30.4,19.9l-28.6-29.5l-3-8.1l-16-4.2l0.2-10.9l-16.3-8.1l0.9-4.8
		l16.9,8.9L268,73.3c0,0,11.4,7.6,19,6c0,0-26.2-10.6-31.8-26l-17.7-11.4l12.2,3.5l-11.8-9l3.7,0.1l-5.8-7.6l7-3.7l6.6,5.5L248.1,20
		l7.5,7.2l-5.5,16.9L259,39l15.2,7.8l0.3-1l-4.8-13.3l7.5,2.8l-2.7,10.5l0.5,1.4l-0.8-0.4l-2.5,9.7l9.3-4l6.5,14.3l0-25.2l10.6,6.7
		l8.4-3l2.5,7.8l5-5.3l0.3,7.2l6.2,1.3l3.5,6.2l8.2-3.5l8.2,17.3l-0.2-20.8l15.9,28.8l1.2-11.1L384,92.9l-72.7-79.3l22.7,16.7
		l-4-9.2L359,41l-34.5-30.5l4.9,0.6L303.5-3.1l5.8-3.9l-24.3-13.5l30.6,13l-24.4-19.8l-0.6-5.5l-22.7-12.5l9,1
		c0,0-44.3-35.3-79.7-39.3c-0.5-0.1-1-0.1-1.5-0.2l0.9-9.5l-6.4-22.5L186.3-85c-15-1.9-27.7-2-57.7,15.3
		c-14.4,4.6-42.4,13.9-56.1,21.6l24.9-1.4l12.8-0.7l-15.6,2.7L21.7-34.9l19.2,2.1l-12.1,9.2L49-24.1l-0.1,10.3l-0.1,6.1L36.6-4.3
		L11.1,2.8l15.6,0.7C19.5,9.1,12,15.1,4,21.4l7.9-1.3l-43.4,31l22.4-4.4l-1.6,6.8L38,14.9L36,26.1L51.7,4.2l6.4,20.1l6.8-28.2l20,29
		l0.8-26.7L97.9,13c0,0,11.6-22,26.5-14l-0.2,11.6l14.5-8.1l11.1,17.6l-3.7,1.8l-15.1-1.7c0,0-10.6,9.9-18.5,5.8l-0.8,6.8
		c0,0-21.9-1.9-31.5,3.9c0,0,12.9,2,14.9,8c0,0-21.6,0.2-30.5,4.5c0,0,15.7,1.2,14.3,8.4c-1.3,7.2-29.6,15.1-37.8,0.5l1.9,14.3
		c0,0-20.9,4.7-25.2,12.3c0,0,14.9-4,23.1,0.9l-58.9,39.8l21.5-8.7c0,0-45.3,28.6-58.1,58.8l40.9-22.3l9,21c0,0,14.3-26.3,9.6-36.8
		l23,29.4l3.2-33.3l16.5,17.1l0.2-16.8l12.6-6.8l1.4,6.5l14.2-10.7L71,143.7l-12.2,17.8c-3.8,1.7-7.3,3.4-10.2,5l19.1-1.1l-0.3,2.2
		l-69.7,12.1l19.2,2.1l-12.1,9.2l20.3-0.5L25,200.7l-0.1,6.1l-12.2,3.4l-25.6,7.1l15.6,0.7c-7.2,5.6-14.7,11.6-22.7,17.9l7.9-1.3
		l-43.4,31l22.4-4.4l-1.6,6.8l48.7-38.4L12,240.6l15.8-21.8l6.4,20.1l6.8-28.2l20,29l0.8-26.7L74,227.5c0,0,11.6-22,26.5-14
		l-0.2,11.6l14.5-8.1l6.3,10l-4.3-0.5c0,0-8.4,7.8-14.7,4.6l-0.6,5.3c0,0-17.3-1.5-24.9,3.1c0,0,10.2,1.6,11.8,6.3
		c0,0-17.1,0.2-24.1,3.6c0,0,12.4,1,11.3,6.7c-1.1,5.7-23.4,12-29.9,0.4l1.5,11.3c0,0-16.5,3.7-20,9.7c0,0,11.8-3.1,18.3,0.7
		l-46.6,31.5l17-6.8c0,0-35.8,22.6-46,46.5l32.4-17.6l7.1,16.6c0,0,11.3-20.8,7.6-29.1l18.2,23.2l2.5-26.3l13.1,13.5l0.2-13.3
		l10-5.4l1.1,5.1l11.2-8.5l-4.1,16.5l-9.9,14.4l8.2-3.5l-1.7,12.9l8.6-10.4l0.6,15.3c0,0,16.5-24,22.4-18.9l4.1,12.9l4.2-8.1
		l8.1,6.7l-20.5,9.4l21.7-5.6l0.4,10.7c-5.3-0.1-11.8,1-19.8,4.6l6.7,6.9c0,0-15.4-1.4-24.8,1.1c0,0,13.4,4.5,13.5,7.9
		c0,0-21.1-2.6-24.6,2c0,0,9.4,2.4,8.9,5.2c0,0-20.7,8.5-27.7,16.9c0,0,23.4-8.2,27.6-6.1c0,0-14.7,7.8-17.3,13.3
		c0,0,21.4-10.4,25.3-7.5c0,0-1.6,9.3-14.4,7.3c0,0,4,8.8-2.1,9.2c-6.2,0.4-15-2.2-21.4,4.8c0,0,9.3-0.9,11.9,5.5
		c0,0-24.5,7.8-30,17.5c0,0,22.2-12.2,30.8-7.1c0,0,1.4,12.1-23.9,27.6l10.4-1.1c0,0-20,27.5-17.1,41.7c0,0,16.6-24.5,21.1-22.3
		c4.5,2.2,4.7,10.5,4.7,10.5s4.4-17.3,1.4-22.9c0,0,11.3,0.4,12.8,10c0,0,5.4-13.3,0-19.7l9.1,5.7c0,0,5.9-5.7,12-3.1
		c0,0-11.1,12.6-13.3,22.4c0,0,16.4-12.9,20.4-8.8L71.7,507l10.6-4.3c-2.9,4.3-5.1,9.7-6,16.5c0,0,5.2-4.8,11-8.5
		c-3.3,5.8-7.2,11.8-10.3,13.5c0,0,6.1-3.3,11.3-6.5l-18.2,20.6l22.9-12.4l-0.5,2.8c0,0,0.4-0.4,1.1-1c-3.7,6.9-13.1,23.9-17.7,27.3
		c3.8-2.2,19.1-11.8,21.8-18.7c0,0-3.1,17.7-8.6,20.2c0,0,8,1.1,15.1-0.8l-1.4,11.1l-23.5,14.7L102,573l-1.5,11.6l-34,22l32.9-13.4
		l-3.6,28.3l35.1,3.9l4.7-50.8l45.3,26.2l-44.7-32.4l3-32.5c6.4,5.6,18.4,14.6,29,14.9c0,0-17.2-10.6-28-26.2l0.6-6.8
		c7,5.1,17.6,11.9,22.7,11.4c0,0-4.3-4.1-9.8-9.8c5.5,1.5,10.8,2.2,14.4,1.5c0,0-15.4-8.6-25.8-19.4l0.7-7.3
		c8.3,3.8,19.9,8.7,23.1,7.7c0,0-19.6-14.4-20.3-23c0,0,6.6,4.5,12.9,2.3c0,0-12.6-8.7-8.8-14.7c0,0,14.5-3,18,8
		c3.6,11,0.8,13.4,0.8,13.4s6.2-3.5,6.4-9.3c0,0,10.3,12,0.8,21.1c0,0,5.7-2.9,5.5,4.4c0,0,12.7-18.6,21.8-10.5
		c0,0-10.9,9.8-11.8,17.8c0,0,5.1-6.1,9-2.1c0,0,2.8,8.4-3.4,11.6c0,0,9.4-1.9,13.2-11.9c0,0,18.9,5.9,24.4,27.3
		c0,0-3.2-33-11.4-41.9l8.4,1.4l-18.3-19.1l8.4,0.9L208,461.7c0,0,11.6,0.3,16.7,7.3c0,0-3.8-23.5-21-33.6c0,0,13.1-2.1,20.4,3.3
		c0,0-21.9-16.6-24.6-27.5c0,0,11.9-1.8,15.1,0.9c0,0-8.4-8.2-22.4-8.3c0,0,3.4-9.6,12-8.4c0,0-3.9-6.1-19.3-4.2c0,0-5.2-9.1,4-9.8
		c0,0-7.6-13.8-23.8-16.2l-8.2-15.2l14.1,10.5l-14.3-17.1l0.2-1.8l7.4,2.3l-6.6-11.2l0.8-8.7l2.4-2.3l5.6,2.3l3,5.6l4.2-5.4
		l7.3,16.9l4.1-12.3l34,31l-21.6-32.9l16.1,8.8l-2.6,4.9l5.6-3.3l0.1,0l0,0l12.2-7.2l-3,27.1l20.3-12.7l4.9,23.6l13.9-12.3
		l20.2,22.9l-2.3-12L299,380l-34.3-58.6l24.1,15.7l-22.6-23.3l-2.3-6.4l-12.7-3.4l0.1-8.6l-12.9-6.4l0.7-3.8l13.4,7l-27.3-23.9
		c0,0,9,6,15,4.7c0,0-20.7-8.4-25.2-20.6l-2.8-1.8l5.5,0.2l-5.8-7.6l7-3.7l6.6,5.5l-1.3-10.7l7.5,7.2l-5.5,16.9l8.9-5.1l15.2,7.8
		l-2.5,9.7l9.3-4l6.5,14.3l0-25.2l10.6,6.7l8.4-3l2.5,7.8l5-5.3l0.3,7.2l6.2,1.3l3.5,6.2l8.2-3.5l8.2,17.3l-0.2-20.8l15.9,28.8
		l1.2-11.1l26.5,19.6l-72.7-79.3L310,244.8z M249.9,128.9l12.7,11.9l-8.4,15.8l-15.9-18.9L249.9,128.9z M48,127.4l0.1-6.3l4.3,0.5
		L48,127.4z M48.3,109.2l0-3.4l8.8-0.9L48.3,109.2z M51.2,311.2l0.1-5l3.4,0.4L51.2,311.2z M51.3,296.9l0-2.7l6.9-0.7L51.3,296.9z
		 M142.5,214.9l-2.7,7.5l-9.8,4.8l1.7-12.5L142.5,214.9z M228.6,12.9l5.1-8l4.3,6.6l-6.4,12L207.9-7.5
		C207.9-7.5,226.9-2.9,228.6,12.9z M195.7,19l-0.1,0l0.1-0.1L195.7,19z M173.4,15.9L173.4,15.9L173.4,15.9L173.4,15.9z M155.7,0.3
		l10.8,0.1l-5.1,14.1l-8.2,4.1L155.7,0.3z M77.6,164.7l0,1l-5.2,0.9l1.4-1.7L77.6,164.7z M123.5,351.2l6.8,1l-1.4,11.3
		c-2.1-1.3-5.6-2.9-10.7-3.4L123.5,351.2z M159.1,364.8c-1.4,0-2.9,0.2-4.4,0.4l0.3-2.9L159.1,364.8z M210.8,312.4l10,9.4l-6.6,12.5
		l-12.5-14.9L210.8,312.4z"/>
</g>
<g>
	
		<linearGradient id="SVGID_54_" gradientUnits="userSpaceOnUse" x1="-4224.3071" y1="528.4431" x2="-4223.5693" y2="528.4431" gradientTransform="matrix(-0.9964 8.497725e-02 8.497725e-02 0.9964 -2856.5806 343.3713)">
		<stop  offset="0" style="stop-color:#071C3A"/>
		<stop  offset="0.6108" style="stop-color:#03182E"/>
		<stop  offset="1" style="stop-color:#001524"/>
	</linearGradient>
	<path class="st59" d="M1396.6,510.7c0.5,0.3,0.8,0.5,0.8,0.5C1397.1,511.1,1396.9,510.9,1396.6,510.7z"/>
	
		<linearGradient id="SVGID_55_" gradientUnits="userSpaceOnUse" x1="-4387.3784" y1="234.7627" x2="-3980.4431" y2="234.7627" gradientTransform="matrix(-0.9964 8.497725e-02 8.497725e-02 0.9964 -2856.5806 343.3713)">
		<stop  offset="0" style="stop-color:#071C3A"/>
		<stop  offset="0.6108" style="stop-color:#03182E"/>
		<stop  offset="1" style="stop-color:#001524"/>
	</linearGradient>
	<path class="st60" d="M1203.2,193.8l-71.3,73.8l25.8-18l0.9,10.6l15.9-27.1l-0.7,19.9l8.2-16.3l7.7,3.6l3.5-5.8l6-1l0.5-6.9
		l4.7,5.1l2.5-7.3l7.9,3l10.3-6.2l-0.6,24.1l6.5-13.5l8.8,4l-2.1-9.4l14.7-7l8.4,5.1l-4.8-16.2l7.3-6.7l-1.5,10.2l6.4-5l6.6,3.7
		l-5.7,7.1l5.3,0l-2.7,1.7c-4.6,11.5-24.5,19-24.5,19c5.7,1.4,14.4-4.1,14.4-4.1l-26.6,22.1l12.9-6.4l0.6,3.6l-12.4,5.8l-0.1,8.2
		l-12.2,2.9l-2.4,6l-22.2,21.7l23.3-14.4l-34.1,55l15.8-12.5l-2.5,11.4l19.8-21.3l12.9,12.1l5.2-22.4l19,12.6l-2.2-25.9l11.5,7.2
		l0,0l0.1,0l5.2,3.3l-2.4-4.8l15.5-8L1265,321l33.2-28.7l3.7,11.8l7.4-15.9l3.9,5.2l3-5.3l5.4-2l2.3,2.3l0.5,8.4l-6.5,10.5l7.1-2
		l0.1,1.7l-14.1,15.9l13.7-9.6l-8.2,14.3c-15.5,1.9-23.1,14.8-23.1,14.8c8.8,0.8,3.6,9.4,3.6,9.4c-14.6-2.1-18.5,3.6-18.5,3.6
		c8.2-0.9,11.2,8.4,11.2,8.4c-13.3-0.3-21.5,7.4-21.5,7.4c3.2-2.4,14.4-0.4,14.4-0.4c-2.9,10.3-24.2,25.6-24.2,25.6
		c7.1-5,19.6-2.7,19.6-2.7c-16.6,9.1-20.9,31.5-20.9,31.5c5-6.6,16.1-6.5,16.1-6.5l-13.6,14.8l8.1-0.7l-17.9,17.8l8-1.1
		c-8,8.2-11.9,39.6-11.9,39.6c5.8-20.3,24-25.4,24-25.4c3.4,9.6,12.3,11.7,12.3,11.7c-5.8-3.2-2.9-11.1-2.9-11.1
		c3.8-3.7,8.5,2.2,8.5,2.2c-0.7-7.7-10.8-17.3-10.8-17.3c8.9-7.5,20.5,10.5,20.5,10.5c0-6.9,5.4-4,5.4-4c-8.9-8.9,1.3-20.1,1.3-20.1
		c0.1,5.5,5.9,9,5.9,9s-2.6-2.4,1.1-12.8c3.7-10.4,17.4-7.2,17.4-7.2c3.5,5.8-8.7,13.8-8.7,13.8c5.9,2.3,12.3-1.8,12.3-1.8
		c-0.9,8.2-20,21.4-20,21.4c3.1,1.1,14.3-3.3,22.3-6.7l0.5,7c-10.3,10.1-25.1,17.9-25.1,17.9c3.5,0.8,8.5,0.2,13.8-1.1
		c-5.3,5.3-9.6,9.1-9.6,9.1c4.8,0.6,15.1-5.6,21.9-10.3l0.4,6.5c-10.6,14.6-27.3,24.3-27.3,24.3c10.1,0,21.8-8.3,28-13.5l2,31
		l-43.4,29.8l43.8-23.9l3.2,48.6l33.6-2.9l-2.8-27.1l31,13.6l-31.9-21.8l-1.1-11.1l21.4,8.5l-22-14.6l-1.1-10.6
		c6.7,2,14.3,1.2,14.3,1.2c-5.2-2.5-7.7-19.5-7.7-19.5c2.4,6.7,16.8,16.2,20.4,18.4c-4.3-3.3-12.8-19.8-16.2-26.4c0.6,0.6,1,1,1,1
		l-0.4-2.7l21.6,12.4l-16.8-20.1c4.9,3.1,10.6,6.5,10.6,6.5c-2.9-1.8-6.5-7.5-9.5-13.1c5.5,3.7,10.3,8.4,10.3,8.4
		c-0.7-6.5-2.7-11.7-5.3-15.9l10,4.4L1380,440c3.9-3.8,19.2,8.9,19.2,8.9c-1.9-9.3-12.1-21.7-12.1-21.7c5.9-2.3,11.4,3.3,11.4,3.3
		l8.8-5.2c-5.3,6-0.5,18.8-0.5,18.8c1.6-9.1,12.4-9.2,12.4-9.2c-3,5.3,0.8,21.8,0.8,21.8s0.4-8,4.7-9.9c4.3-2,19.6,21.8,19.6,21.8
		c3.1-13.5-15.3-40.1-15.3-40.1l9.9,1.3c-23.8-15.4-22.1-26.9-22.1-26.9c8.3-4.7,29.2,7.5,29.2,7.5c-5-9.3-28.2-17.4-28.2-17.4
		c2.7-6,11.5-4.9,11.5-4.9c-5.9-6.9-14.4-4.6-20.2-5.1c-5.9-0.6-1.8-8.8-1.8-8.8c-12.3,1.6-13.6-7.3-13.6-7.3
		c3.7-2.7,23.9,7.7,23.9,7.7c-2.3-5.3-16.2-13.1-16.2-13.1c4.1-1.9,26.2,6.5,26.2,6.5c-6.5-8.2-26-16.8-26-16.8
		c-0.5-2.6,8.6-4.7,8.6-4.7c-3.3-4.5-23.4-2.5-23.4-2.5c0.3-3.2,13.1-7.2,13.1-7.2c-8.9-2.7-23.6-1.7-23.6-1.7l6.6-6.4
		c-7.5-3.6-13.8-4.8-18.8-4.8l0.6-10.2l20.6,5.9l-19.3-9.4l7.9-6.2l3.8,7.9l4.2-12.2c5.7-4.7,20.9,18.6,20.9,18.6l0.9-14.6l7.9,10.1
		l-1.3-12.3l7.7,3.6l-9.1-14l-3.5-15.8l10.5,8.3l1.2-4.9l9.4,5.4l-0.2,12.7l12.8-12.6l1.7,25.2l18-21.7c-3.7,7.8,6.5,28,6.5,28
		l7.2-15.7l30.4,17.6c-9.1-23-42.7-45.5-42.7-45.5l16,6.9l-43.6-31.1c6.3-3.5,17.4-0.2,17.4-0.2c-3.1-5.8-18.8-9.8-18.8-9.8
		l1.7-10.7c-6.5,10.8-27.6,4.3-28.5-1.1c-0.9-5.5,11-6.1,11-6.1c-6.6-3.4-22.9-4-22.9-4c1.6-4.5,11.4-5.7,11.4-5.7
		c-7.1-4.5-23.7-3.5-23.7-3.5l-0.4-5.1c-6.1,2.9-13.9-4.8-13.9-4.8l-4.1,0.3l6.2-9.4l13.6,8.1l0.1-11.1c14.4-7.3,25,14,25,14
		l12.1-13.6l0.1,25.5l19.8-27.2l5.7,27.1l6.6-19l14.5,21.2l-1.7-10.7l45.5,37.8l-1.3-6.5l21.3,4.8l-40.6-30.6l7.5,1.5
		c-7.4-6.2-14.5-12.1-21.2-17.7l14.9-0.3l-24.2-7.4l-11.6-3.5l0.1-5.8l0.2-9.8l19.4,1l-11.3-9.1l18.3-1.6l-66.1-13.3l-0.2-2.1
		l18.2,1.5c-2.7-1.6-6-3.3-9.6-5l-11.2-17.2l-4.4-20l13.3,10.6l1.5-6.1l11.8,6.8l-0.2,16l16.2-15.9l2.2,31.8l22.7-27.4
		c-4.7,9.9,8.3,35.4,8.3,35.4l9.1-19.8l38.5,22.3c-11.5-29.1-54-57.5-54-57.5l20.3,8.8l-55.2-39.4c8-4.4,22.1-0.3,22.1-0.3
		c-4-7.3-23.8-12.3-23.8-12.3l2.2-13.5c-8.2,13.7-34.9,5.5-36-1.4c-1.1-6.9,13.9-7.7,13.9-7.7c-8.4-4.3-29-5-29-5
		c2-5.7,14.4-7.2,14.4-7.2c-9-5.7-29.9-4.5-29.9-4.5l-0.6-6.5c-7.7,3.7-17.5-6-17.5-6l-14.4,1.2l-3.5-1.8l11-16.5l13.6,8.1l0.1-11.1
		c14.4-7.3,25,14,25,14l12.1-13.6l0.1,25.5l19.8-27.2l5.7,27.1l6.6-19l14.5,21.2l-1.7-10.7l45.5,37.8l-1.3-6.5l21.3,4.8l-40.6-30.6
		l7.5,1.5c-7.4-6.2-14.5-12.1-21.2-17.7l14.9-0.3l-24.2-7.4l-11.6-3.5l0.1-5.8l0.2-9.8l19.4,1l-11.3-9.1l18.3-1.6l-69.2-13.9
		l-14.8-3l12.2,1l23.7,2c-12.9-7.7-39.3-17.3-53-22c-28.1-17.3-40.3-17.5-54.6-16l-3-29.4l-6.6,21.3l0.6,9.1c-0.5,0-0.9,0.1-1.4,0.1
		c-33.8,2.9-77,35.5-77,35.5l8.6-0.7l-22,11.4l-0.7,5.2L1182-31.6l29.5-11.6L1188-30.9l5.5,3.9l-25,12.8l4.7-0.4l-33.6,28.2
		l28.1-18.2l-4,8.7l22.1-15.3l-71.3,73.8l25.8-18l0.9,10.6L1157,28l-0.7,19.9l8.2-16.3l7.7,3.6l3.5-5.8l6-1l0.5-6.9l4.7,5.1l2.5-7.3
		l7.9,3l10.3-6.2l-0.6,24.1l6.5-13.5l8.8,4l-2.1-9.4l-0.8,0.4l0.5-1.4l-2.3-10.1l7.2-2.5l-4.9,12.6l0.2,1l14.7-7l8.4,5.1l-4.8-16.2
		l7.3-6.7l-1.5,10.2l6.4-5l6.6,3.7l-5.7,7.1l3.5,0l-11.5,8.2l11.8-3L1238.2,28c-5.8,14.5-31,24-31,24c7.2,1.7,18.2-5.2,18.2-5.2
		l-33.7,27.9l16.3-8.1l0.7,4.6l-15.7,7.4l-0.1,10.4l-15.4,3.6l-3,7.6l-28,27.4l29.5-18.2l-43.1,69.6l20-15.8l-3.1,14.4l25.1-27
		l16.3,15.3l6.6-28.3l24.1,16l-2.8-32.8l14.5,9.1l0,0.1l0.1,0l6.6,4.1l-3-6l19.6-10.1l-10.7,15.4c-5.5,3.7-8.9,6.2-8.9,6.2l4.9-0.4
		l-1.8,2.6l-16.4,8.5l-0.7,5.2l-23.8,18.3l29.5-11.6l-23.5,12.3l5.5,3.9l-25,12.8l4.7-0.4l-33.6,28.2l28.1-18.2l-4,8.7L1203.2,193.8
		z M1252.1,108.9l-15.6,17.6l-7.6-15.3l12.4-11.1L1252.1,108.9z M1429.8,98.1l4.1-0.3l-0.1,6L1429.8,98.1z M1425.8,82.1l8.3,1l0,3.3
		L1425.8,82.1z M1423.1,274.5l3.2-0.3l-0.1,4.7L1423.1,274.5z M1419.9,261.8l6.6,0.8l0,2.6L1419.9,261.8z M1351.9,185l1.3,11.9
		l-9.2-4.9l-2.4-7.3L1351.9,185z M1284.8-28.8L1261.5,0l-5.9-11.6l4.2-6.2l4.6,7.8C1266.5-25,1284.8-28.8,1284.8-28.8z M1295.7-3.4
		l0.1,0.1l-0.1,0L1295.7-3.4z M1317.1-5.7L1317.1-5.7L1317.1-5.7L1317.1-5.7z M1336.3-2.7l-7.7-4.1l-4.5-13.6l10.3,0.2L1336.3-2.7z
		 M1408.3,138.9l1.3,1.6l-4.9-1l0.1-1L1408.3,138.9z M1361.2,323.9c-4.8,0.4-8.2,1.8-10.2,3l-1.1-10.8l6.6-0.8L1361.2,323.9z
		 M1326.1,325.1l0.2,2.8c-1.4-0.3-2.8-0.4-4.2-0.5L1326.1,325.1z M1282.6,283l-12.3,13.9l-6-12.1l9.8-8.8L1282.6,283z"/>
</g>
<path class="st50" d="M1307.8,526.7c-6.9-22,9.3-50.7,19.2-65.2c-1,0.1-2,0.3-2.9,0.4c-43.7,24.3-74.5,152.2-74.5,152.2
	c12.2,12.9,38,18.7,66.5,20.9C1316.1,608.9,1315.3,550.2,1307.8,526.7z"/>
<linearGradient id="SVGID_56_" gradientUnits="userSpaceOnUse" x1="1296.5334" y1="263.3896" x2="1436.5809" y2="263.3896" gradientTransform="matrix(1 0 0 -1 0 812)">
	<stop  offset="0" style="stop-color:#3C3D63"/>
	<stop  offset="1" style="stop-color:#545268"/>
</linearGradient>
<path class="st61" d="M1406.6,479.7c0,0-25.6-13.8-54.1-17.7c-7.7-1.1-15.7-1.5-23.4-0.7c-0.7,0.1-1.3,0.2-2,0.3
	c-0.3,0.4-0.4,0.7-0.7,1.1c-2.2,3.3-4.7,7.3-7.1,11.6c-1.3,2.4-2.6,4.9-3.9,7.5c-6.8,14.1-11.9,31-7.5,45.1c4,12.7,6,35.5,7.1,57.9
	c0,0.1,0,0.1,0,0.2c0.9,19.3,1.1,38.2,1.1,50.3c32.6,2.6,68.6,0.3,92.2-1.9v-50.5v-6.7v-14.3v-3.7v-17.3v-5.7v-9.9V489L1406.6,479.7
	z"/>
<linearGradient id="SVGID_57_" gradientUnits="userSpaceOnUse" x1="140.3937" y1="217.6279" x2="397.2838" y2="217.6279" gradientTransform="matrix(1 0 0 -1 0 812)">
	<stop  offset="0" style="stop-color:#3C3D63"/>
	<stop  offset="1" style="stop-color:#545268"/>
</linearGradient>
<path class="st62" d="M397.3,656.1L342,542.5c0,0-86.3-17.4-159.8-13.8c-19.7,10.9-52.4,32.6-38.4,49.2c14.9,17.7,16.5,62,16.4,81.8
	C268.9,662.8,397.3,656.1,397.3,656.1z"/>
<path class="st50" d="M140.9,572.8c-0.4-1.2-0.5-2.6-0.5-3.8c0.2-14.8,25.5-31.2,41.8-40.3c-2,0.1-4,0.2-5.9,0.4
	c-20.9,4.3-40.4,13.2-57.9,24c-13,8.2-25,17.4-35.7,26.8c0,0-3.4,1.4-12.6,27.6c-4.7,13.2-1.1,30.7,12.6,47.4
	c22.8,2.5,49.4,3.9,77.4,4.8c0.1-19.8-1.5-64-16.4-81.8C142.4,576.2,141.4,574.5,140.9,572.8z"/>
</svg>
